<svg xmlns="http://www.w3.org/2000/svg" xmlns:xlink="http://www.w3.org/1999/xlink" viewBox="0 0 678.1 592.4"><defs><style>.cls-1,.cls-3,.cls-4,.cls-6{fill:none;}.cls-2{clip-path:url(#clip-path);}.cls-3,.cls-4{stroke:#2aff71;stroke-width:10px;}.cls-3,.cls-4,.cls-6{stroke-linecap:round;stroke-linejoin:round;}.cls-4{stroke-dasharray:0 19.78;}.cls-5{fill:#5faf77;}.cls-6{stroke:#fff;stroke-width:4px;}.cls-7{fill:#2aff71;}</style><clipPath id="clip-path" transform="translate(-78 -64)"><path class="cls-1" d="M745.5,0S403.4,35.4,381.8,213.1s3.9,166.3-74.9,179.4S50.9,422.7,25.4,573.6,0,724.5,0,724.5H871.6Z"/></clipPath></defs><g id="Calque_2" data-name="Calque 2"><g id="Calque_1-2" data-name="Calque 1"><g class="cls-2"><line class="cls-3" x1="42.3" y1="5" x2="42.3" y2="5"/><line class="cls-4" x1="62.1" y1="5" x2="625.9" y2="5"/><line class="cls-3" x1="635.8" y1="5" x2="635.8" y2="5"/><line class="cls-3" x1="61" y1="39.7" x2="61" y2="39.7"/><line class="cls-4" x1="80.8" y1="39.7" x2="644.5" y2="39.7"/><line class="cls-3" x1="654.4" y1="39.7" x2="654.4" y2="39.7"/><line class="cls-3" x1="79.7" y1="74.4" x2="79.7" y2="74.4"/><line class="cls-4" x1="99.5" y1="74.4" x2="663.2" y2="74.4"/><line class="cls-3" x1="673.1" y1="74.4" x2="673.1" y2="74.4"/><line class="cls-3" x1="61" y1="109.1" x2="61" y2="109.1"/><line class="cls-4" x1="80.8" y1="109.1" x2="644.5" y2="109.1"/><line class="cls-3" x1="654.4" y1="109.1" x2="654.4" y2="109.1"/><line class="cls-3" x1="42.3" y1="143.8" x2="42.3" y2="143.8"/><line class="cls-4" x1="62.1" y1="143.8" x2="625.9" y2="143.8"/><line class="cls-3" x1="635.8" y1="143.8" x2="635.8" y2="143.8"/><line class="cls-3" x1="42.3" y1="178.5" x2="42.3" y2="178.5"/><line class="cls-4" x1="62.1" y1="178.5" x2="625.9" y2="178.5"/><line class="cls-3" x1="635.8" y1="178.5" x2="635.8" y2="178.5"/><line class="cls-3" x1="23.7" y1="209.5" x2="23.7" y2="209.5"/><line class="cls-4" x1="43.4" y1="209.5" x2="607.2" y2="209.5"/><line class="cls-3" x1="617.1" y1="209.5" x2="617.1" y2="209.5"/><line class="cls-3" x1="42.3" y1="244.2" x2="42.3" y2="244.2"/><line class="cls-4" x1="62.1" y1="244.2" x2="625.9" y2="244.2"/><line class="cls-3" x1="635.8" y1="244.2" x2="635.8" y2="244.2"/><line class="cls-3" x1="61" y1="278.9" x2="61" y2="278.9"/><line class="cls-4" x1="80.8" y1="278.9" x2="644.5" y2="278.9"/><line class="cls-3" x1="654.4" y1="278.9" x2="654.4" y2="278.9"/><line class="cls-3" x1="42.3" y1="313.6" x2="42.3" y2="313.6"/><line class="cls-4" x1="62.1" y1="313.6" x2="625.9" y2="313.6"/><line class="cls-3" x1="635.8" y1="313.6" x2="635.8" y2="313.6"/><line class="cls-3" x1="23.7" y1="348.3" x2="23.7" y2="348.3"/><line class="cls-4" x1="43.4" y1="348.3" x2="607.2" y2="348.3"/><line class="cls-3" x1="617.1" y1="348.3" x2="617.1" y2="348.3"/><line class="cls-3" x1="23.7" y1="383" x2="23.7" y2="383"/><line class="cls-4" x1="43.4" y1="383" x2="607.2" y2="383"/><line class="cls-3" x1="617.1" y1="383" x2="617.1" y2="383"/><line class="cls-3" x1="5" y1="414" x2="5" y2="414"/><line class="cls-4" x1="24.8" y1="414" x2="588.5" y2="414"/><line class="cls-3" x1="598.4" y1="414" x2="598.4" y2="414"/><line class="cls-3" x1="23.7" y1="448.7" x2="23.7" y2="448.7"/><line class="cls-4" x1="43.4" y1="448.7" x2="607.2" y2="448.7"/><line class="cls-3" x1="617.1" y1="448.7" x2="617.1" y2="448.7"/><line class="cls-3" x1="42.3" y1="483.4" x2="42.3" y2="483.4"/><line class="cls-4" x1="62.1" y1="483.4" x2="625.9" y2="483.4"/><line class="cls-3" x1="635.8" y1="483.4" x2="635.8" y2="483.4"/><line class="cls-3" x1="23.7" y1="518.1" x2="23.7" y2="518.1"/><line class="cls-4" x1="43.4" y1="518.1" x2="607.2" y2="518.1"/><line class="cls-3" x1="617.1" y1="518.1" x2="617.1" y2="518.1"/><line class="cls-3" x1="5" y1="552.8" x2="5" y2="552.8"/><line class="cls-4" x1="24.8" y1="552.8" x2="588.5" y2="552.8"/><line class="cls-3" x1="598.4" y1="552.8" x2="598.4" y2="552.8"/><line class="cls-3" x1="5" y1="587.4" x2="5" y2="587.4"/><line class="cls-4" x1="24.8" y1="587.4" x2="588.5" y2="587.4"/><line class="cls-3" x1="598.4" y1="587.4" x2="598.4" y2="587.4"/></g><path class="cls-5" d="M355.94,532.67s-47.67-79.78,10.48-121.28,89.5,33.72,104.12-51.05,27.38-98.63,54.93-74.46,55.61-86.37,99.65-74.71,65.5,33.64,40.39,61.7S535.78,361.61,554.63,380.79s18.93,76.15-18,97,17.07,40.23-30.17,63.89S396.59,591.57,355.94,532.67Z" transform="translate(-78 -64)"/><path class="cls-6" d="M343.94,589S461.58,422.8,528.26,351.72,638.55,261,638.55,261" transform="translate(-78 -64)"/><line class="cls-6" x1="452.97" y1="367.08" x2="345.63" y2="416.35"/><path class="cls-6" d="M506.71,468.52s-19.78,1.61-35.07-10.23" transform="translate(-78 -64)"/><path class="cls-7" d="M396.23,578.4s-62.8-3.12-64.74-52.4,52.23-38.62,9.63-79.36-45.64-53.41-21.8-60S291,321.73,314,300.86s43.27-24.77,49.87.33,2.19,108.44,19.94,105,50.12,18.17,48.18,47.41,29.07,5.58,25,41.75S444.65,577.64,396.23,578.4Z" transform="translate(-78 -64)"/></g></g></svg>