<svg xmlns="http://www.w3.org/2000/svg" viewBox="0 0 359.14 356.57"><defs><style>.cls-1{fill:none;stroke:#2aff71;stroke-width:3px;}.cls-1,.cls-4{stroke-miterlimit:10;}.cls-2,.cls-4{fill:#2aff71;}.cls-3{fill:#5faf77;}.cls-4{stroke:#fff;stroke-width:4px;}</style></defs><g id="Calque_2" data-name="Calque 2"><g id="Calque_1-2" data-name="Calque 1"><path class="cls-1" d="M181.79,70.18C54,31.77,1.31,127,1.31,127"/><path class="cls-2" d="M114.38,163.51c-72.07-12.41-62.3-62.91-62.3-62.91C100.11,110.18,114.31,163.62,114.38,163.51Z"/><path class="cls-3" d="M111.26,150.61C39.19,138.2,49,87.7,49,87.7,97.06,97.18,111.26,150.61,111.26,150.61Z"/><path class="cls-2" d="M109.63,0c11.75,30.32-39.81,56.49-39.81,56.49C76.8,20.79,109.57.11,109.63,0Z"/><path class="cls-3" d="M96.42,7.48C108.16,37.8,56.61,64,56.61,64,63.52,28.38,96.35,7.59,96.42,7.48Z"/><path class="cls-2" d="M182.41,72.09c33,30.8,79.41,5.33,79.41,5.33C192.19,26.15,182.41,72.09,182.41,72.09Z"/><path class="cls-3" d="M178.36,68.63c38.77,23.34,78.8-11.3,78.8-11.3C178.31,21.67,178.36,68.63,178.36,68.63Z"/><path class="cls-2" d="M169.34,169.56c-50.63-39.47-52.22-96-52.22-96C193.69,105.31,169.24,169.49,169.34,169.56Z"/><path class="cls-3" d="M157.55,163.2c-50.63-39.47-52.22-96-52.22-96C181.9,99,157.55,163.2,157.55,163.2Z"/><path class="cls-2" d="M199.64,10.94c-9.88,29.93-72.28,39.55-72.28,39.55C158.33,14.56,199.64,10.94,199.64,10.94Z"/><path class="cls-3" d="M177.36.26C175.65,31.68,118,57.48,118,57.48,138.44,14.79,177.29.37,177.36.26Z"/><path class="cls-2" d="M32.9,354.85s235.22-59.48,325.22-192.67c0,0-95.37-35.79-144.35,18.54L207,217.33l-19.9-16s-44.81,3.69-51.49,40.26l23.67,17.89-47.1,4.82Z"/><line class="cls-4" x1="32.9" y1="354.85" x2="358.12" y2="162.18"/><path class="cls-4" d="M270.17,175.68s-12.63,16.27-43.5,64.37"/><line class="cls-4" x1="180.33" y1="265.67" x2="171.95" y2="227.98"/></g></g></svg>