<svg xmlns="http://www.w3.org/2000/svg" viewBox="0 0 666.47 520.18"><defs><style>.cls-1{fill:#5faf77;}.cls-2,.cls-3,.cls-7{fill:none;}.cls-2,.cls-4,.cls-7,.cls-8{stroke:#fff;}.cls-2{stroke-linecap:round;stroke-linejoin:round;}.cls-2,.cls-7,.cls-8{stroke-width:4px;}.cls-3,.cls-9{stroke:#2aff71;}.cls-3,.cls-4,.cls-7,.cls-8,.cls-9{stroke-miterlimit:10;}.cls-3{stroke-width:3px;}.cls-4{fill:#fff;}.cls-5{fill:#1d1d1b;}.cls-6,.cls-8,.cls-9{fill:#2aff71;}.cls-9{stroke-width:7px;}</style></defs><g id="Calque_2" data-name="Calque 2"><g id="Calque_1-2" data-name="Calque 1"><path class="cls-1" d="M205.14,513.71H86.79C90,487.29,117.2,478.43,74.2,459c-53.42-24.14-60.38-34.93-39.72-49S-13,358.56,2.24,331.5s33.39-37.45,47.61-16.09S86.2,416.17,102.08,407a26.58,26.58,0,0,1,10.68-3.15,51,51,0,0,1,22.61,3.35c9.75,3.71,18.89,10.32,24.18,19.79a36.26,36.26,0,0,1,3.45,8.48c5.12,19.24,17.12,10,26.57,13.72,4.21,1.67,7.91,5.92,10.26,16.41.06.23.11.46.16.7,1.12,5.21,2.22,10.66,3.12,16.21.31,1.88.6,3.76.85,5.66.12.84.22,1.68.32,2.52A122.7,122.7,0,0,1,205.14,513.71Z"/><path class="cls-2" d="M37.37,331.15s5.54,32.14,41,88.29c15.82,25,42.38,60,67,91l2.57,3.24"/><line class="cls-2" x1="131.21" y1="431.23" x2="145.35" y2="510.47"/><path class="cls-2" d="M151.76,453.64S149.43,467,139,475"/><path class="cls-3" d="M487.76,285.77c-44.64,148.58,66,209.76,66,209.76"/><path class="cls-4" d="M596.24,364.12c-14.43,83.76-73.12,72.41-73.12,72.41C534.26,380.7,596.37,364.2,596.24,364.12Z"/><path class="cls-4" d="M581.25,367.74c-14.43,83.76-73.12,72.41-73.12,72.41C519.14,384.25,581.25,367.74,581.25,367.74Z"/><path class="cls-4" d="M406.2,369.63c35.24-13.65,65.66,46.27,65.66,46.27C430.37,407.79,406.33,369.71,406.2,369.63Z"/><path class="cls-4" d="M414.89,385c35.24-13.65,65.66,46.27,65.66,46.27C439.18,423.22,415,385.07,414.89,385Z"/><path class="cls-4" d="M490,285.05c35.8-38.36,6.21-92.29,6.21-92.29C436.6,273.68,490,285.05,490,285.05Z"/><path class="cls-4" d="M486,289.75c27.13-45.05-13.13-91.57-13.13-91.57C431.38,289.81,486,289.75,486,289.75Z"/><path class="cls-4" d="M603.27,300.23c-45.87,58.85-111.63,60.7-111.63,60.7C528.59,271.94,603.19,300.36,603.27,300.23Z"/><path class="cls-4" d="M595.88,313.94C550,372.79,484.25,374.63,484.25,374.63,521.2,285.64,595.88,313.94,595.88,313.94Z"/><path class="cls-4" d="M418.92,265c34.78,11.48,46,84,46,84C423.12,313,418.92,265,418.92,265Z"/><path class="cls-4" d="M406.5,290.92C443,292.91,473,360,473,360,423.39,336.15,406.63,291,406.5,290.92Z"/><path class="cls-5" d="M465.19,241.31a114.63,114.63,0,0,1-7.89,14.27c-4.86,7.74-11.06,16.69-17.55,26-3.83,5.52-7.78,11.16-11.59,16.75l-.49.71c-3.17,4.66-6.26,9.28-9.12,13.76-13.25,20.74-21.78,38.45-12.84,43,4.56,2.33,8.86,6.48,12.5,11.82A62,62,0,0,1,425.64,383c.21.6.4,1.22.58,1.83a67.12,67.12,0,0,1,2.09,9.25,62.29,62.29,0,0,1,.73,8,55.77,55.77,0,0,1-2,16.79c-.38,1.36-.82,2.71-1.33,4a45.17,45.17,0,0,1-8.83,14.53q-1.17,1.29-2.1,2.49c-18.69,23.86,25.15,25.9-5,56-5.91,5.91-12.25,12-18.95,17.84H274.68a122.16,122.16,0,0,1-8.74-12.35c-1.31-2.11-2.57-4.31-3.75-6.6-9.56-18.41-14.39-42.17,2.54-65.33,32.53-44.53,73.12-3.87,70.53-53.83-.16-3.11-.49-6.57-1-10.42-.15-1.12-.31-2.28-.49-3.48-1.72-11.42-3-21.37-3.8-30-.57-6.1-.92-11.54-1-16.34-.64-30.51,8.37-35.66,28.78-27,28.09,11.93,21.37-83,59.29-85.28,23.78-1.45,41.59,2.63,48.49,13C469.62,222.2,469.86,230.57,465.19,241.31Z"/><path class="cls-2" d="M440.72,238.94s-8.4,7.73-21.44,26.2c-.09.14-.19.28-.3.43-11.29,16.07-26,40.15-41.77,74.16-8.66,18.7-18.3,43.09-27.88,69.1l-1.71,4.66c-6.69,18.31-13.31,37.28-19.5,55.53q-1.32,3.87-2.61,7.69l-4.34,13c-2.78,8.36-5.43,16.43-7.91,24.05"/><line class="cls-2" x1="400.17" y1="401.86" x2="328.12" y2="469.02"/><path class="cls-2" d="M390.79,437.86s-15.24,6.46-30.45,1.1"/><path class="cls-3" d="M506.47,407.42c-11.8,39.28-15.24,73.86-13.25,104"/><path class="cls-6" d="M647.36,509.17c-.1.59-.21,1.18-.31,1.76-.17.94-.34,1.86-.52,2.78H634.65c6.27-2.55,10.73-3.93,12.19-4.37Z"/><path class="cls-6" d="M509.36,406.48c46.49-49.82,8-119.86,8-119.86C440,391.72,509.36,406.48,509.36,406.48Z"/><path class="cls-1" d="M504.13,412.6c35.23-58.52-17.05-118.94-17.05-118.94C433.25,412.68,504.13,412.6,504.13,412.6Z"/><path class="cls-6" d="M656.49,426.21c-59.57,76.43-145,78.83-145,78.83C559.51,389.45,656.39,426.37,656.49,426.21Z"/><path class="cls-1" d="M646.89,444q-3.69,4.74-7.51,9.1a204.26,204.26,0,0,1-26.94,25.73,209,209,0,0,1-65.19,34.88H505.93a185.58,185.58,0,0,1,9.71-18h0a146,146,0,0,1,13.76-18.92c20.5-23.78,43.85-33.6,64.29-36.89a116.73,116.73,0,0,1,44.13,1.56c1.73.4,3.24.79,4.5,1.14C645.27,443.38,646.89,444,646.89,444Z"/><path class="cls-6" d="M417.06,380.48c45.18,14.91,59.7,109.1,59.7,109.1C422.52,442.83,417.06,380.48,417.06,380.48Z"/><path class="cls-1" d="M400.93,414.11c47.44,2.58,86.37,89.68,86.37,89.68C422.87,472.86,401.1,414.22,400.93,414.11Z"/><path class="cls-3" d="M258.72,513.71a212.18,212.18,0,0,1-23.89-45.45c-13.18-34.74-19.42-78.79-9.06-133.1,2-10.47,4.61-21.32,7.9-32.56l.69-2.31"/><path class="cls-6" d="M375.25,402.05c-18.73,108.79-95,94-95,94C294.75,423.59,375.42,402.15,375.25,402.05Z"/><path class="cls-1" d="M355.78,406.76c-18.73,108.79-95,94-95,94C275.12,428.19,355.78,406.76,355.78,406.76Z"/><path class="cls-6" d="M128.43,409.21c45.77-17.72,85.27,60.1,85.27,60.1C159.82,458.77,128.6,409.32,128.43,409.21Z"/><path class="cls-1" d="M139.72,429.16C185.49,411.43,225,489.25,225,489.25,171.27,478.82,139.88,429.26,139.72,429.16Z"/><path class="cls-6" d="M237.24,299.36c46.5-49.83,8.06-119.87,8.06-119.87C167.91,284.59,237.24,299.36,237.24,299.36Z"/><path class="cls-1" d="M232,305.47C267.25,247,215,186.53,215,186.53,161.13,305.55,232,305.47,232,305.47Z"/><path class="cls-6" d="M384.38,319.08c-59.57,76.43-145,78.83-145,78.83C287.4,282.33,384.28,319.24,384.38,319.08Z"/><path class="cls-1" d="M374.78,336.88c-59.57,76.43-145,78.83-145,78.83C277.8,300.13,374.78,336.88,374.78,336.88Z"/><path class="cls-6" d="M145,273.35c45.18,14.91,59.7,109.11,59.7,109.11C150.41,335.7,145,273.35,145,273.35Z"/><path class="cls-1" d="M128.82,307c47.44,2.58,86.37,89.67,86.37,89.67C150.76,365.73,129,307.09,128.82,307Z"/><path class="cls-6" d="M184.07,493.71s-74.3-3.7-76.6-62,61.8-45.7,11.4-93.9-54-63.2-25.8-71-33.5-76.8-6.3-101.5,51.2-29.3,59,.4,2.6,128.3,23.6,124.2,59.3,21.5,57,56.1,34.4,6.6,29.6,49.4S241.37,492.81,184.07,493.71Z"/><path class="cls-2" d="M212.74,511.44s-54.47-139.33-73-216.83-12.3-116-12.3-116"/><line class="cls-2" x1="195.07" y1="328.41" x2="180.47" y2="423.81"/><path class="cls-2" d="M209.77,361.81s-7.8,14.2-22.7,19.3"/><path class="cls-6" d="M660.46,513.71H634.65c-1.41.57-2.92,1.2-4.51,1.9l-.91-1.9-16.79-34.88-3.84-8-14.9-31-6.64-13.8-7.76-16.13-3.71-7.71,10.73-34.56L596.77,334l-38.84,22.28c-1.88-1.25-3.66-2.54-5.33-3.89a64.19,64.19,0,0,1-21.81-33.64,81.32,81.32,0,0,1-1.82-8.07c-4.44-25.74,3.54-49.74,3.54-49.74l34-18.19-46.83-31.06C473.19,111.49,579.34.26,579.34.26,680.38,156.67,670.51,406.12,660.46,513.71Z"/><polyline class="cls-7" points="579.34 0.26 609.65 228.88 635.2 421.58 637.83 441.42 638.5 446.45 639.38 453.1 646.84 509.34 647.05 510.93 647.42 513.71"/><path class="cls-8" d="M546,130.38s15.12,27.16,63.64,98.5"/><line class="cls-7" x1="617.79" y1="308.4" x2="560.5" y2="297.72"/><path class="cls-9" d="M634.65,513.71c-1.41.57-2.92,1.2-4.51,1.9l-.91-1.9Z"/></g></g></svg>