<svg xmlns="http://www.w3.org/2000/svg" viewBox="0 0 786.77 443.31"><defs><style>.cls-1,.cls-8{fill:#fff;}.cls-1,.cls-3,.cls-4{stroke:#fff;}.cls-1,.cls-3,.cls-4,.cls-6,.cls-7{stroke-miterlimit:10;}.cls-2{fill:#5faf77;}.cls-3,.cls-6,.cls-7{fill:none;}.cls-3,.cls-4{stroke-width:4px;}.cls-4,.cls-5{fill:#2aff71;}.cls-6,.cls-7{stroke:#2aff71;}.cls-7{stroke-width:3px;}</style></defs><g id="Calque_2" data-name="Calque 2"><g id="Calque_1-2" data-name="Calque 1"><path class="cls-1" d="M640.12,440.88H480.87l-1.17.75-2.25-.75H60.54l6.53-211.51,3.15-102.14L71.37,90S110.31,79.74,161,83.16c40.05,2.69,87.41,14,128.62,45.67a206.46,206.46,0,0,1,34,33l.69.84q5.68,7,11,14.81A247.63,247.63,0,0,1,353,208.13s.84,1.45,2.49,4a208.69,208.69,0,0,0,28.89,34.64,182.3,182.3,0,0,0,17.22,14.67c12.2,9.13,26.49,17.21,42.65,22.05q2.66.8,5.37,1.47a112.18,112.18,0,0,0,12.8,2.4c2.7.34,5.44.59,8.23.73a111.68,111.68,0,0,0,17.35-.49c18.16-1.93,36.7,6.43,54.59,20.69,4.26,3.4,8.49,7.13,12.66,11.14q.66.63,1.32,1.29c.92.88,1.83,1.79,2.74,2.71,3.47,3.5,6.9,7.19,10.29,11,.92,1,1.85,2.11,2.76,3.18a432.47,432.47,0,0,1,32,42.85h0c4.16,6.27,8.16,12.58,12,18.82C625.37,413.9,633.38,428.2,640.12,440.88Z"/><path class="cls-2" d="M287.87,440.88H199.14c-13.23-17.41-26.91-36.16-40.62-56-20.09-29.12-40.23-60.63-59.06-93.79-11.37-20-22.27-40.64-32.39-61.7C31.89,156.25,6,77.85,1.76,1,1.76,1,102.58,19.32,161,83.16c18,19.68,32,43.68,37.7,72.79L176.27,216l43.53-6s62.94,45.06,40.49,105l-50.78,5.5,61.82,46.16,3.5,2.61,2.74,15,1.25,6.87.78,4.27,3.44,18.9Z"/><polyline class="cls-3" points="1.76 0.95 70.22 127.23 127.14 232.22 240.25 440.88"/><path class="cls-4" d="M119.77,98.66s4.27,35.2,7.37,133.57"/><line class="cls-3" x1="172.97" y1="311.05" x2="218.66" y2="262.76"/><path class="cls-2" d="M272.88,401.19S394.4,206.94,368.73,57.32c0,0-88.41,37.91-86.31,107l19.31,29.38-24,2.12s-28.14,31.79-8.8,61.1l27.82-3.27-29,34.06Z"/><line class="cls-3" x1="272.88" y1="401.19" x2="368.73" y2="57.32"/><path class="cls-4" d="M317.58,124s2,19.34,12.41,72.31"/><line class="cls-3" x1="315.12" y1="244.05" x2="284.79" y2="223.82"/><path class="cls-5" d="M120.62,434.72s-16.64-.61-27.15-20.26-6.2-44-6.2-44,35.17,32,35.8,19.52-34.3-34.07-34.3-34.07-1.6-27.88,4-42.05l31.57,38.54L96.69,297.66s7.53-23,20.16-20.75,34.81,21.92,40.13,35.24l-6.74,18.63,11.3-11s11,31.7,5.18,60.31c0,0-32.51,16.71-17.46,23.75s17.06-4.52,17.06-4.52S167.09,455.73,120.62,434.72Z"/><path class="cls-6" d="M110.62,403.55c4,11.69,8,22.34,12,32q1.09,2.7,2.19,5.29"/><path class="cls-2" d="M553.71,325.88l-16.84,7.45,12.18.4,20.58.68,4.39.15s-.55,1.08-1.63,3a345.83,345.83,0,0,1-24,37.19c-3.07,4.17-6.4,8.49-10,12.89-15.1,18.59-34.56,38.48-57.53,53.21l-1.17.75-2.25-.75c-11.51-3.73-63.48-19.43-67.72,0H304.33c-6.35-12.86-13.2-36.38-2.71-68.21s33.94-56.37,49.62-70a164.45,164.45,0,0,1,15.36-12.08s1.16,49.95,8.62,77.43c3.71,13.69,9,21.81,16.47,15.38C414,364,394,269.17,394,269.17s2.84-3,7.61-7.77c10.6-10.55,30.78-29.62,50.66-42.88a117.65,117.65,0,0,1,20-11l-2.54,20.62-7.31,59.22-4.54,36.82,12.77-36.09,35.48-100.31s32.65-15.67,54.44-9.21a24.31,24.31,0,0,1,13.83,9.89c16.73,25.36,19.33,95.14,5.21,126l-20.3,9Z"/><path class="cls-5" d="M542.62,308.25l-22.53,10,35.19,1.17,2,.07-.64,1.22c-.58,1.08-1.55,2.85-2.89,5.2-1.24,2.16-2.8,4.81-4.66,7.85-13.75,22.49-44.19,66.34-86.13,92.79,0,0-81.43-28.24-68.95,8.91.66,2,1.34,3.77,2.06,5.45H296c-.48-1.28-1-2.6-1.43-3.94,0,0-7.05-7.94-11.54-22.55a82.67,82.67,0,0,1-3.44-18.9c-.11-1.72-.18-3.48-.19-5.3a96.46,96.46,0,0,1,1.88-19.2,114.15,114.15,0,0,1,3.55-13.42q.5-1.5,1-3c9.14-25.39,26.4-46,40.68-59.8a184.47,184.47,0,0,1,23.28-19.35s.27,11.85,1.42,27.18c2.38,31.84,8.5,78.68,23.67,65.63l.31-.28c21.85-19.94,2-113.91,2-113.91s2.66-2.84,7.17-7.34c14-14,46-44.08,71.11-54.35l-3.23,26.14-8,64.93L441.12,309l8.53-24.12,20.11-56.82,19.62-55.47s51.41-24.67,68.27.69a47.17,47.17,0,0,1,3,5.21c14,28.65,15.5,91.84,2.26,120.77Z"/><path class="cls-6" d="M353,407.35q-8.89,17.26-16.78,33.53"/><path class="cls-7" d="M694.39,440.61c-.6-24-4.58-50.54-13.12-79.65"/><path class="cls-5" d="M671.14,240.08S632.24,309.87,678.4,360C678.4,360,747.83,345.7,671.14,240.08Z"/><path class="cls-2" d="M701.43,247.32s-52.69,60.07-17.85,118.83C683.58,366.15,754.46,366.7,701.43,247.32Z"/><path class="cls-5" d="M667.43,440.88h-58a205.3,205.3,0,0,1-64.2-45.69q-3.44-3.62-6.79-7.52-3.69-4.29-7.27-8.94a104.29,104.29,0,0,1,17.24-4c13.72-2,34.36-2.64,56,5.66h0C626.38,388.85,649.4,406.41,667.43,440.88Z"/><path class="cls-2" d="M666.13,440.88h-78.9a204.83,204.83,0,0,1-46.62-44.28s1.63-.61,4.58-1.41c11-3,40.3-8.75,71.22,4.08C633.42,406.33,650.93,419,666.13,440.88Z"/><path class="cls-5" d="M770.87,334.61s-1.86,19.67-13.16,45.13a177.75,177.75,0,0,1-44.48,61.14q-1.38,1.23-2.79,2.43s.14-.86.43-2.43.74-3.88,1.36-6.75C717.37,410.1,734.29,346.41,770.87,334.61Z"/><path class="cls-2" d="M786.77,368.35c-.14.08-15.76,41.26-59,72.53H713.23q-1.38,1.23-2.79,2.43s.14-.86.43-2.43h-2.52c1.18-2.12,2.47-4.38,3.88-6.75,10.35-17.5,26.45-40.72,45.48-54.39C766.82,373.19,776.61,368.83,786.77,368.35Z"/><path class="cls-8" d="M477.45,440.88h3.42l-1.17.75Z"/><path class="cls-8" d="M713.23,440.88q-1.38,1.23-2.79,2.43s.14-.86.43-2.43Z"/></g></g></svg>