<svg id="Calque_1" data-name="Calque 1" xmlns="http://www.w3.org/2000/svg" viewBox="0 0 1440 1024"><defs><style>.cls-1,.cls-3{fill:none;stroke-miterlimit:10;}.cls-1{stroke:#2aff71;stroke-width:3px;}.cls-2{fill:#2aff71;}.cls-3{stroke:#1d1d1b;}</style></defs><path class="cls-1" d="M1120.2,591.68s84.5,4.8,112.2-95.3"/><path class="cls-2" d="M1158.6,569.08s-37.3-14.5-15.6-67.1C1143,502,1172.3,533.58,1158.6,569.08Z"/><path class="cls-3" d="M1165.9,576.58s-37.3-14.5-15.6-67.1C1150.2,509.38,1179.6,541,1165.9,576.58Z"/><path class="cls-2" d="M1195,575.68s38.6-23.1,53.7-2.8C1248.7,572.88,1221.4,585.88,1195,575.68Z"/><path class="cls-3" d="M1184.6,581.38s38.6-23.1,53.7-2.8C1238.3,578.58,1211,591.58,1184.6,581.38Z"/><path class="cls-2" d="M1260.9,440.68s-36,20-29.4,54.5C1231.4,495.18,1265.7,507.68,1260.9,440.68Z"/><path class="cls-3" d="M1272.2,452.08s-39.4,12-40.1,47.2C1232,499.28,1263,518.68,1272.2,452.08Z"/><path class="cls-2" d="M1203.4,537.58s-36.6-24.5-41.6-74.2C1161.8,463.38,1214.2,474,1203.4,537.58Z"/><path class="cls-3" d="M1202.8,547.88s-36.6-24.5-41.6-74.2C1161.1,473.78,1213.5,484.28,1202.8,547.88Z"/><path class="cls-2" d="M1222.9,540.38s32.2-37.1,56-31.2C1278.9,509.18,1259.3,534.78,1222.9,540.38Z"/><path class="cls-3" d="M1214.3,543.58s40.9-27.3,62.3-15.4C1276.6,528.18,1250.9,547.78,1214.3,543.58Z"/><path class="cls-1" d="M449.5,372.18S459.5,237.08,300,190"/><path class="cls-2" d="M414.5,310.08s-24.2,59.3-107.9,23.2C306.6,333.28,357.9,287.18,414.5,310.08Z"/><path class="cls-3" d="M426.5,298.68s-24.2,59.3-107.9,23.2C318.7,321.88,370,275.78,426.5,298.68Z"/><path class="cls-2" d="M426,252s-36-62.4-3-86C423,166,443.1,210.08,426,252Z"/><path class="cls-3" d="M434.8,268.78s-36-62.4-3-86C431.7,182.88,451.9,226.88,434.8,268.78Z"/><path class="cls-2" d="M211.6,142.88s31,58.2,86.5,48.6C298.1,191.48,319.1,136.88,211.6,142.88Z"/><path class="cls-3" d="M230.2,125.08s18.2,63.3,74.4,65.5C304.7,190.58,336.6,141.68,230.2,125.08Z"/><path class="cls-2" d="M365.2,237.48s-40.1,57.9-119.9,64.6C245.3,302.08,263.6,218.48,365.2,237.48Z"/><path class="cls-3" d="M381.7,238.78s-40.1,57.9-119.9,64.6C261.9,303.48,280.2,219.78,381.7,238.78Z"/><path class="cls-2" d="M370.2,206.38s-58.5-52.6-48.5-90.5C321.8,115.88,362.3,148,370.2,206.38Z"/><path class="cls-3" d="M375.1,220.18s-42.5-66.2-22.9-100.1C352.2,120.08,382.9,161.68,375.1,220.18Z"/></svg>