<svg xmlns="http://www.w3.org/2000/svg" xmlns:xlink="http://www.w3.org/1999/xlink" viewBox="0 0 1457.47 918.32"><defs><style>.cls-1,.cls-3,.cls-4{fill:none;}.cls-2{clip-path:url(#clip-path);}.cls-3,.cls-4{stroke:#2aff71;stroke-linecap:round;stroke-linejoin:round;stroke-width:7px;}.cls-4{stroke-dasharray:0 19.78;}</style><clipPath id="clip-path" transform="translate(-143.21 109.28)"><path class="cls-1" d="M1484.46,0s-206,89.32-338.7,378.43-435.91,56.78-435.91,56.78,80.21-226.07-44.51-258.95c0,0-71.47,14.4-57,76.55l57,20-47.29,16.28s21.11,70.36,37.65,75.14l31.41-19.15L676,385.48l11.09,49.73s-106.18-88.87-233.47-66.67-270.3,108.12-270.3,108.12L0,609.27V909.86l1530.17-26.79Z"/></clipPath></defs><g id="Calque_2" data-name="Calque 2"><g id="Calque_1-2" data-name="Calque 1"><g class="cls-2"><line class="cls-3" x1="32.09" y1="468.4" x2="32.09" y2="468.4"/><line class="cls-4" x1="47.27" y1="468.4" x2="479.43" y2="468.4"/><line class="cls-3" x1="487.01" y1="468.4" x2="487.01" y2="468.4"/><line class="cls-3" x1="46.42" y1="495" x2="46.42" y2="495"/><line class="cls-4" x1="61.6" y1="495" x2="493.68" y2="495"/><line class="cls-3" x1="501.27" y1="495" x2="501.27" y2="495"/><line class="cls-3" x1="60.76" y1="521.6" x2="60.76" y2="521.6"/><line class="cls-4" x1="75.94" y1="521.6" x2="508.02" y2="521.6"/><line class="cls-3" x1="515.61" y1="521.6" x2="515.61" y2="521.6"/><line class="cls-3" x1="46.42" y1="548.19" x2="46.42" y2="548.19"/><line class="cls-4" x1="61.6" y1="548.19" x2="493.68" y2="548.19"/><line class="cls-3" x1="501.27" y1="548.19" x2="501.27" y2="548.19"/><line class="cls-3" x1="32.09" y1="574.79" x2="32.09" y2="574.79"/><line class="cls-4" x1="47.27" y1="574.79" x2="479.43" y2="574.79"/><line class="cls-3" x1="487.01" y1="574.79" x2="487.01" y2="574.79"/><line class="cls-3" x1="32.09" y1="601.39" x2="32.09" y2="601.39"/><line class="cls-4" x1="47.27" y1="601.39" x2="479.43" y2="601.39"/><line class="cls-3" x1="487.01" y1="601.39" x2="487.01" y2="601.39"/><line class="cls-3" x1="17.83" y1="625.15" x2="17.83" y2="625.15"/><line class="cls-4" x1="32.93" y1="625.15" x2="465.09" y2="625.15"/><line class="cls-3" x1="472.68" y1="625.15" x2="472.68" y2="625.15"/><line class="cls-3" x1="32.09" y1="651.75" x2="32.09" y2="651.75"/><line class="cls-4" x1="47.27" y1="651.75" x2="479.43" y2="651.75"/><line class="cls-3" x1="487.01" y1="651.75" x2="487.01" y2="651.75"/><line class="cls-3" x1="46.42" y1="678.35" x2="46.42" y2="678.35"/><line class="cls-4" x1="61.6" y1="678.35" x2="493.68" y2="678.35"/><line class="cls-3" x1="501.27" y1="678.35" x2="501.27" y2="678.35"/><line class="cls-3" x1="32.09" y1="704.94" x2="32.09" y2="704.94"/><line class="cls-4" x1="47.27" y1="704.94" x2="479.43" y2="704.94"/><line class="cls-3" x1="487.01" y1="704.94" x2="487.01" y2="704.94"/><line class="cls-3" x1="17.83" y1="731.54" x2="17.83" y2="731.54"/><line class="cls-4" x1="32.93" y1="731.54" x2="465.09" y2="731.54"/><line class="cls-3" x1="472.68" y1="731.54" x2="472.68" y2="731.54"/><line class="cls-3" x1="17.83" y1="758.14" x2="17.83" y2="758.14"/><line class="cls-4" x1="32.93" y1="758.14" x2="465.09" y2="758.14"/><line class="cls-3" x1="472.68" y1="758.14" x2="472.68" y2="758.14"/><line class="cls-3" x1="3.5" y1="781.9" x2="3.5" y2="781.9"/><line class="cls-4" x1="18.68" y1="781.9" x2="450.76" y2="781.9"/><line class="cls-3" x1="458.35" y1="781.9" x2="458.35" y2="781.9"/><line class="cls-3" x1="17.83" y1="808.5" x2="17.83" y2="808.5"/><line class="cls-4" x1="32.93" y1="808.5" x2="465.09" y2="808.5"/><line class="cls-3" x1="472.68" y1="808.5" x2="472.68" y2="808.5"/><line class="cls-3" x1="32.09" y1="835.1" x2="32.09" y2="835.1"/><line class="cls-4" x1="47.27" y1="835.1" x2="479.43" y2="835.1"/><line class="cls-3" x1="487.01" y1="835.1" x2="487.01" y2="835.1"/><line class="cls-3" x1="17.83" y1="861.7" x2="17.83" y2="861.7"/><line class="cls-4" x1="32.93" y1="861.7" x2="465.09" y2="861.7"/><line class="cls-3" x1="472.68" y1="861.7" x2="472.68" y2="861.7"/><line class="cls-3" x1="3.5" y1="888.29" x2="3.5" y2="888.29"/><line class="cls-4" x1="18.68" y1="888.29" x2="450.76" y2="888.29"/><line class="cls-3" x1="458.35" y1="888.29" x2="458.35" y2="888.29"/><line class="cls-3" x1="3.5" y1="914.82" x2="3.5" y2="914.82"/><line class="cls-4" x1="18.68" y1="914.82" x2="450.76" y2="914.82"/><line class="cls-3" x1="458.35" y1="914.82" x2="458.35" y2="914.82"/><line class="cls-3" x1="501.27" y1="468.4" x2="501.27" y2="468.4"/><line class="cls-4" x1="516.45" y1="468.4" x2="948.61" y2="468.4"/><line class="cls-3" x1="956.2" y1="468.4" x2="956.2" y2="468.4"/><line class="cls-3" x1="515.61" y1="495" x2="515.61" y2="495"/><line class="cls-4" x1="530.78" y1="495" x2="962.86" y2="495"/><line class="cls-3" x1="970.45" y1="495" x2="970.45" y2="495"/><line class="cls-3" x1="529.94" y1="521.6" x2="529.94" y2="521.6"/><line class="cls-4" x1="545.12" y1="521.6" x2="977.2" y2="521.6"/><line class="cls-3" x1="984.79" y1="521.6" x2="984.79" y2="521.6"/><line class="cls-3" x1="515.61" y1="548.19" x2="515.61" y2="548.19"/><line class="cls-4" x1="530.78" y1="548.19" x2="962.86" y2="548.19"/><line class="cls-3" x1="970.45" y1="548.19" x2="970.45" y2="548.19"/><line class="cls-3" x1="501.27" y1="574.79" x2="501.27" y2="574.79"/><line class="cls-4" x1="516.45" y1="574.79" x2="948.61" y2="574.79"/><line class="cls-3" x1="956.2" y1="574.79" x2="956.2" y2="574.79"/><line class="cls-3" x1="501.27" y1="601.39" x2="501.27" y2="601.39"/><line class="cls-4" x1="516.45" y1="601.39" x2="948.61" y2="601.39"/><line class="cls-3" x1="956.2" y1="601.39" x2="956.2" y2="601.39"/><line class="cls-3" x1="487.01" y1="625.15" x2="487.01" y2="625.15"/><line class="cls-4" x1="502.11" y1="625.15" x2="934.27" y2="625.15"/><line class="cls-3" x1="941.86" y1="625.15" x2="941.86" y2="625.15"/><line class="cls-3" x1="501.27" y1="651.75" x2="501.27" y2="651.75"/><line class="cls-4" x1="516.45" y1="651.75" x2="948.61" y2="651.75"/><line class="cls-3" x1="956.2" y1="651.75" x2="956.2" y2="651.75"/><line class="cls-3" x1="515.61" y1="678.35" x2="515.61" y2="678.35"/><line class="cls-4" x1="530.78" y1="678.35" x2="962.86" y2="678.35"/><line class="cls-3" x1="970.45" y1="678.35" x2="970.45" y2="678.35"/><line class="cls-3" x1="501.27" y1="704.94" x2="501.27" y2="704.94"/><line class="cls-4" x1="516.45" y1="704.94" x2="948.61" y2="704.94"/><line class="cls-3" x1="956.2" y1="704.94" x2="956.2" y2="704.94"/><line class="cls-3" x1="487.01" y1="731.54" x2="487.01" y2="731.54"/><line class="cls-4" x1="502.11" y1="731.54" x2="934.27" y2="731.54"/><line class="cls-3" x1="941.86" y1="731.54" x2="941.86" y2="731.54"/><line class="cls-3" x1="487.01" y1="758.14" x2="487.01" y2="758.14"/><line class="cls-4" x1="502.11" y1="758.14" x2="934.27" y2="758.14"/><line class="cls-3" x1="941.86" y1="758.14" x2="941.86" y2="758.14"/><line class="cls-3" x1="472.68" y1="781.9" x2="472.68" y2="781.9"/><line class="cls-4" x1="487.86" y1="781.9" x2="919.94" y2="781.9"/><line class="cls-3" x1="927.53" y1="781.9" x2="927.53" y2="781.9"/><line class="cls-3" x1="487.01" y1="808.5" x2="487.01" y2="808.5"/><line class="cls-4" x1="502.11" y1="808.5" x2="934.27" y2="808.5"/><line class="cls-3" x1="941.86" y1="808.5" x2="941.86" y2="808.5"/><line class="cls-3" x1="501.27" y1="835.1" x2="501.27" y2="835.1"/><line class="cls-4" x1="516.45" y1="835.1" x2="948.61" y2="835.1"/><line class="cls-3" x1="956.2" y1="835.1" x2="956.2" y2="835.1"/><line class="cls-3" x1="487.01" y1="861.7" x2="487.01" y2="861.7"/><line class="cls-4" x1="502.11" y1="861.7" x2="934.27" y2="861.7"/><line class="cls-3" x1="941.86" y1="861.7" x2="941.86" y2="861.7"/><line class="cls-3" x1="472.68" y1="888.29" x2="472.68" y2="888.29"/><line class="cls-4" x1="487.86" y1="888.29" x2="919.94" y2="888.29"/><line class="cls-3" x1="927.53" y1="888.29" x2="927.53" y2="888.29"/><line class="cls-3" x1="472.68" y1="914.82" x2="472.68" y2="914.82"/><line class="cls-4" x1="487.86" y1="914.82" x2="919.94" y2="914.82"/><line class="cls-3" x1="927.53" y1="914.82" x2="927.53" y2="914.82"/><line class="cls-3" x1="970.45" y1="468.4" x2="970.45" y2="468.4"/><line class="cls-4" x1="985.63" y1="468.4" x2="1417.79" y2="468.4"/><line class="cls-3" x1="1425.38" y1="468.4" x2="1425.38" y2="468.4"/><line class="cls-3" x1="984.79" y1="495" x2="984.79" y2="495"/><line class="cls-4" x1="999.96" y1="495" x2="1432.04" y2="495"/><line class="cls-3" x1="1439.63" y1="495" x2="1439.63" y2="495"/><line class="cls-3" x1="999.12" y1="521.6" x2="999.12" y2="521.6"/><line class="cls-4" x1="1014.3" y1="521.6" x2="1446.38" y2="521.6"/><line class="cls-3" x1="1453.97" y1="521.6" x2="1453.97" y2="521.6"/><line class="cls-3" x1="984.79" y1="548.19" x2="984.79" y2="548.19"/><line class="cls-4" x1="999.96" y1="548.19" x2="1432.04" y2="548.19"/><line class="cls-3" x1="1439.63" y1="548.19" x2="1439.63" y2="548.19"/><line class="cls-3" x1="970.45" y1="574.79" x2="970.45" y2="574.79"/><line class="cls-4" x1="985.63" y1="574.79" x2="1417.79" y2="574.79"/><line class="cls-3" x1="1425.38" y1="574.79" x2="1425.38" y2="574.79"/><line class="cls-3" x1="970.45" y1="601.39" x2="970.45" y2="601.39"/><line class="cls-4" x1="985.63" y1="601.39" x2="1417.79" y2="601.39"/><line class="cls-3" x1="1425.38" y1="601.39" x2="1425.38" y2="601.39"/><line class="cls-3" x1="956.2" y1="625.15" x2="956.2" y2="625.15"/><line class="cls-4" x1="971.3" y1="625.15" x2="1403.45" y2="625.15"/><line class="cls-3" x1="1411.04" y1="625.15" x2="1411.04" y2="625.15"/><line class="cls-3" x1="970.45" y1="651.75" x2="970.45" y2="651.75"/><line class="cls-4" x1="985.63" y1="651.75" x2="1417.79" y2="651.75"/><line class="cls-3" x1="1425.38" y1="651.75" x2="1425.38" y2="651.75"/><line class="cls-3" x1="984.79" y1="678.35" x2="984.79" y2="678.35"/><line class="cls-4" x1="999.96" y1="678.35" x2="1432.04" y2="678.35"/><line class="cls-3" x1="1439.63" y1="678.35" x2="1439.63" y2="678.35"/><line class="cls-3" x1="970.45" y1="704.94" x2="970.45" y2="704.94"/><line class="cls-4" x1="985.63" y1="704.94" x2="1417.79" y2="704.94"/><line class="cls-3" x1="1425.38" y1="704.94" x2="1425.38" y2="704.94"/><line class="cls-3" x1="956.2" y1="731.54" x2="956.2" y2="731.54"/><line class="cls-4" x1="971.3" y1="731.54" x2="1403.45" y2="731.54"/><line class="cls-3" x1="1411.04" y1="731.54" x2="1411.04" y2="731.54"/><line class="cls-3" x1="956.2" y1="758.14" x2="956.2" y2="758.14"/><line class="cls-4" x1="971.3" y1="758.14" x2="1403.45" y2="758.14"/><line class="cls-3" x1="1411.04" y1="758.14" x2="1411.04" y2="758.14"/><line class="cls-3" x1="941.86" y1="781.9" x2="941.86" y2="781.9"/><line class="cls-4" x1="957.04" y1="781.9" x2="1389.12" y2="781.9"/><line class="cls-3" x1="1396.71" y1="781.9" x2="1396.71" y2="781.9"/><line class="cls-3" x1="956.2" y1="808.5" x2="956.2" y2="808.5"/><line class="cls-4" x1="971.3" y1="808.5" x2="1403.45" y2="808.5"/><line class="cls-3" x1="1411.04" y1="808.5" x2="1411.04" y2="808.5"/><line class="cls-3" x1="970.45" y1="835.1" x2="970.45" y2="835.1"/><line class="cls-4" x1="985.63" y1="835.1" x2="1417.79" y2="835.1"/><line class="cls-3" x1="1425.38" y1="835.1" x2="1425.38" y2="835.1"/><line class="cls-3" x1="956.2" y1="861.7" x2="956.2" y2="861.7"/><line class="cls-4" x1="971.3" y1="861.7" x2="1403.45" y2="861.7"/><line class="cls-3" x1="1411.04" y1="861.7" x2="1411.04" y2="861.7"/><line class="cls-3" x1="941.86" y1="888.29" x2="941.86" y2="888.29"/><line class="cls-4" x1="957.04" y1="888.29" x2="1389.12" y2="888.29"/><line class="cls-3" x1="1396.71" y1="888.29" x2="1396.71" y2="888.29"/><line class="cls-3" x1="941.86" y1="914.82" x2="941.86" y2="914.82"/><line class="cls-4" x1="957.04" y1="914.82" x2="1389.12" y2="914.82"/><line class="cls-3" x1="1396.71" y1="914.82" x2="1396.71" y2="914.82"/><line class="cls-3" x1="838.4" y1="3.5" x2="838.4" y2="3.5"/><line class="cls-4" x1="853.58" y1="3.5" x2="1285.74" y2="3.5"/><line class="cls-3" x1="1293.33" y1="3.5" x2="1293.33" y2="3.5"/><line class="cls-3" x1="852.74" y1="30.1" x2="852.74" y2="30.1"/><line class="cls-4" x1="867.91" y1="30.1" x2="1300" y2="30.1"/><line class="cls-3" x1="1307.58" y1="30.1" x2="1307.58" y2="30.1"/><line class="cls-3" x1="867.07" y1="56.7" x2="867.07" y2="56.7"/><line class="cls-4" x1="882.25" y1="56.7" x2="1314.33" y2="56.7"/><line class="cls-3" x1="1321.92" y1="56.7" x2="1321.92" y2="56.7"/><line class="cls-3" x1="852.74" y1="83.29" x2="852.74" y2="83.29"/><line class="cls-4" x1="867.91" y1="83.29" x2="1300" y2="83.29"/><line class="cls-3" x1="1307.58" y1="83.29" x2="1307.58" y2="83.29"/><line class="cls-3" x1="838.4" y1="109.89" x2="838.4" y2="109.89"/><line class="cls-4" x1="853.58" y1="109.89" x2="1285.74" y2="109.89"/><line class="cls-3" x1="1293.33" y1="109.89" x2="1293.33" y2="109.89"/><line class="cls-3" x1="838.4" y1="136.49" x2="838.4" y2="136.49"/><line class="cls-4" x1="853.58" y1="136.49" x2="1285.74" y2="136.49"/><line class="cls-3" x1="1293.33" y1="136.49" x2="1293.33" y2="136.49"/><line class="cls-3" x1="824.15" y1="160.25" x2="824.15" y2="160.25"/><line class="cls-4" x1="839.25" y1="160.25" x2="1271.41" y2="160.25"/><line class="cls-3" x1="1278.99" y1="160.25" x2="1278.99" y2="160.25"/><line class="cls-3" x1="838.4" y1="186.85" x2="838.4" y2="186.85"/><line class="cls-4" x1="853.58" y1="186.85" x2="1285.74" y2="186.85"/><line class="cls-3" x1="1293.33" y1="186.85" x2="1293.33" y2="186.85"/><line class="cls-3" x1="852.74" y1="213.45" x2="852.74" y2="213.45"/><line class="cls-4" x1="867.91" y1="213.45" x2="1300" y2="213.45"/><line class="cls-3" x1="1307.58" y1="213.45" x2="1307.58" y2="213.45"/><line class="cls-3" x1="838.4" y1="240.04" x2="838.4" y2="240.04"/><line class="cls-4" x1="853.58" y1="240.04" x2="1285.74" y2="240.04"/><line class="cls-3" x1="1293.33" y1="240.04" x2="1293.33" y2="240.04"/><line class="cls-3" x1="824.15" y1="266.64" x2="824.15" y2="266.64"/><line class="cls-4" x1="839.25" y1="266.64" x2="1271.41" y2="266.64"/><line class="cls-3" x1="1278.99" y1="266.64" x2="1278.99" y2="266.64"/><line class="cls-3" x1="824.15" y1="293.24" x2="824.15" y2="293.24"/><line class="cls-4" x1="839.25" y1="293.24" x2="1271.41" y2="293.24"/><line class="cls-3" x1="1278.99" y1="293.24" x2="1278.99" y2="293.24"/><line class="cls-3" x1="809.81" y1="317" x2="809.81" y2="317"/><line class="cls-4" x1="824.99" y1="317" x2="1257.07" y2="317"/><line class="cls-3" x1="1264.66" y1="317" x2="1264.66" y2="317"/><line class="cls-3" x1="824.15" y1="343.6" x2="824.15" y2="343.6"/><line class="cls-4" x1="839.25" y1="343.6" x2="1271.41" y2="343.6"/><line class="cls-3" x1="1278.99" y1="343.6" x2="1278.99" y2="343.6"/><line class="cls-3" x1="838.4" y1="370.2" x2="838.4" y2="370.2"/><line class="cls-4" x1="853.58" y1="370.2" x2="1285.74" y2="370.2"/><line class="cls-3" x1="1293.33" y1="370.2" x2="1293.33" y2="370.2"/><line class="cls-3" x1="824.15" y1="396.8" x2="824.15" y2="396.8"/><line class="cls-4" x1="839.25" y1="396.8" x2="1271.41" y2="396.8"/><line class="cls-3" x1="1278.99" y1="396.8" x2="1278.99" y2="396.8"/><line class="cls-3" x1="809.81" y1="423.39" x2="809.81" y2="423.39"/><line class="cls-4" x1="824.99" y1="423.39" x2="1257.07" y2="423.39"/><line class="cls-3" x1="1264.66" y1="423.39" x2="1264.66" y2="423.39"/><line class="cls-3" x1="809.81" y1="449.92" x2="809.81" y2="449.92"/><line class="cls-4" x1="824.99" y1="449.92" x2="1257.07" y2="449.92"/><line class="cls-3" x1="1264.66" y1="449.92" x2="1264.66" y2="449.92"/><line class="cls-3" x1="369.22" y1="3.5" x2="369.22" y2="3.5"/><line class="cls-4" x1="384.4" y1="3.5" x2="816.56" y2="3.5"/><line class="cls-3" x1="824.15" y1="3.5" x2="824.15" y2="3.5"/><line class="cls-3" x1="383.56" y1="30.1" x2="383.56" y2="30.1"/><line class="cls-4" x1="398.73" y1="30.1" x2="830.82" y2="30.1"/><line class="cls-3" x1="838.4" y1="30.1" x2="838.4" y2="30.1"/><line class="cls-3" x1="397.89" y1="56.7" x2="397.89" y2="56.7"/><line class="cls-4" x1="413.07" y1="56.7" x2="845.15" y2="56.7"/><line class="cls-3" x1="852.74" y1="56.7" x2="852.74" y2="56.7"/><line class="cls-3" x1="383.56" y1="83.29" x2="383.56" y2="83.29"/><line class="cls-4" x1="398.73" y1="83.29" x2="830.82" y2="83.29"/><line class="cls-3" x1="838.4" y1="83.29" x2="838.4" y2="83.29"/><line class="cls-3" x1="369.22" y1="109.89" x2="369.22" y2="109.89"/><line class="cls-4" x1="384.4" y1="109.89" x2="816.56" y2="109.89"/><line class="cls-3" x1="824.15" y1="109.89" x2="824.15" y2="109.89"/><line class="cls-3" x1="369.22" y1="136.49" x2="369.22" y2="136.49"/><line class="cls-4" x1="384.4" y1="136.49" x2="816.56" y2="136.49"/><line class="cls-3" x1="824.15" y1="136.49" x2="824.15" y2="136.49"/><line class="cls-3" x1="354.97" y1="160.25" x2="354.97" y2="160.25"/><line class="cls-4" x1="370.07" y1="160.25" x2="802.22" y2="160.25"/><line class="cls-3" x1="809.81" y1="160.25" x2="809.81" y2="160.25"/><line class="cls-3" x1="369.22" y1="186.85" x2="369.22" y2="186.85"/><line class="cls-4" x1="384.4" y1="186.85" x2="816.56" y2="186.85"/><line class="cls-3" x1="824.15" y1="186.85" x2="824.15" y2="186.85"/><line class="cls-3" x1="383.56" y1="213.45" x2="383.56" y2="213.45"/><line class="cls-4" x1="398.73" y1="213.45" x2="830.82" y2="213.45"/><line class="cls-3" x1="838.4" y1="213.45" x2="838.4" y2="213.45"/><line class="cls-3" x1="369.22" y1="240.04" x2="369.22" y2="240.04"/><line class="cls-4" x1="384.4" y1="240.04" x2="816.56" y2="240.04"/><line class="cls-3" x1="824.15" y1="240.04" x2="824.15" y2="240.04"/><line class="cls-3" x1="354.97" y1="266.64" x2="354.97" y2="266.64"/><line class="cls-4" x1="370.07" y1="266.64" x2="802.22" y2="266.64"/><line class="cls-3" x1="809.81" y1="266.64" x2="809.81" y2="266.64"/><line class="cls-3" x1="354.97" y1="293.24" x2="354.97" y2="293.24"/><line class="cls-4" x1="370.07" y1="293.24" x2="802.22" y2="293.24"/><line class="cls-3" x1="809.81" y1="293.24" x2="809.81" y2="293.24"/><line class="cls-3" x1="340.63" y1="317" x2="340.63" y2="317"/><line class="cls-4" x1="355.81" y1="317" x2="787.89" y2="317"/><line class="cls-3" x1="795.48" y1="317" x2="795.48" y2="317"/><line class="cls-3" x1="354.97" y1="343.6" x2="354.97" y2="343.6"/><line class="cls-4" x1="370.07" y1="343.6" x2="802.22" y2="343.6"/><line class="cls-3" x1="809.81" y1="343.6" x2="809.81" y2="343.6"/><line class="cls-3" x1="369.22" y1="370.2" x2="369.22" y2="370.2"/><line class="cls-4" x1="384.4" y1="370.2" x2="816.56" y2="370.2"/><line class="cls-3" x1="824.15" y1="370.2" x2="824.15" y2="370.2"/><line class="cls-3" x1="354.97" y1="396.8" x2="354.97" y2="396.8"/><line class="cls-4" x1="370.07" y1="396.8" x2="802.22" y2="396.8"/><line class="cls-3" x1="809.81" y1="396.8" x2="809.81" y2="396.8"/><line class="cls-3" x1="340.63" y1="423.39" x2="340.63" y2="423.39"/><line class="cls-4" x1="355.81" y1="423.39" x2="787.89" y2="423.39"/><line class="cls-3" x1="795.48" y1="423.39" x2="795.48" y2="423.39"/><line class="cls-3" x1="340.63" y1="449.92" x2="340.63" y2="449.92"/><line class="cls-4" x1="355.81" y1="449.92" x2="787.89" y2="449.92"/><line class="cls-3" x1="795.48" y1="449.92" x2="795.48" y2="449.92"/></g></g></g></svg>