<svg id="Calque_1" data-name="Calque 1" xmlns="http://www.w3.org/2000/svg" xmlns:xlink="http://www.w3.org/1999/xlink" viewBox="0 0 1440 1024"><defs><style>.cls-1,.cls-10,.cls-12,.cls-13,.cls-14,.cls-15,.cls-3,.cls-4,.cls-6,.cls-8,.cls-9{fill:none;}.cls-2{clip-path:url(#clip-path);}.cls-10,.cls-13,.cls-14,.cls-15,.cls-3,.cls-4{stroke:#2aff71;}.cls-3,.cls-4,.cls-6,.cls-8,.cls-9{stroke-linecap:round;stroke-linejoin:round;}.cls-15,.cls-3,.cls-4,.cls-8,.cls-9{stroke-width:10px;}.cls-4,.cls-8{stroke-dasharray:0 19.78;}.cls-5{fill:#1d1d1b;}.cls-6{stroke:#fff;stroke-width:4px;}.cls-7{clip-path:url(#clip-path-2);}.cls-8,.cls-9{stroke:#000;}.cls-10,.cls-12,.cls-13,.cls-14,.cls-15{stroke-miterlimit:10;}.cls-10{stroke-width:3px;}.cls-11{fill:#2aff71;}.cls-12{stroke:#1d1d1b;}.cls-14{stroke-width:20px;}</style><clipPath id="clip-path"><path class="cls-1" d="M1483.2,413.9S1141.1,449.3,1119.5,627s3.9,166.3-74.9,179.4-256,30.2-281.5,181.1-25.4,150.9-25.4,150.9h871.6Z"/></clipPath><clipPath id="clip-path-2"><path class="cls-1" d="M-173,864.7s34.1-176,233-112.5,68.1,201.6,217.6,194.1,77.6,164.5,9.4,207.6S25.7,1295.2-99.3,1240.3-173,864.7-173,864.7Z"/></clipPath></defs><g class="cls-2"><line class="cls-3" x1="858" y1="482.9" x2="858" y2="482.9"/><line class="cls-4" x1="877.8" y1="482.9" x2="1441.6" y2="482.9"/><line class="cls-3" x1="876.7" y1="517.6" x2="876.7" y2="517.6"/><line class="cls-4" x1="896.5" y1="517.6" x2="1460.2" y2="517.6"/><line class="cls-3" x1="895.4" y1="552.3" x2="895.4" y2="552.3"/><line class="cls-4" x1="915.2" y1="552.3" x2="1478.9" y2="552.3"/><line class="cls-3" x1="876.7" y1="587" x2="876.7" y2="587"/><line class="cls-4" x1="896.5" y1="587" x2="1460.2" y2="587"/><line class="cls-3" x1="858" y1="621.7" x2="858" y2="621.7"/><line class="cls-4" x1="877.8" y1="621.7" x2="1441.6" y2="621.7"/><line class="cls-3" x1="858" y1="656.4" x2="858" y2="656.4"/><line class="cls-4" x1="877.8" y1="656.4" x2="1441.6" y2="656.4"/><line class="cls-3" x1="839.4" y1="687.4" x2="839.4" y2="687.4"/><line class="cls-4" x1="859.1" y1="687.4" x2="1422.9" y2="687.4"/><line class="cls-3" x1="1432.8" y1="687.4" x2="1432.8" y2="687.4"/><line class="cls-3" x1="858" y1="722.1" x2="858" y2="722.1"/><line class="cls-4" x1="877.8" y1="722.1" x2="1441.6" y2="722.1"/><line class="cls-3" x1="876.7" y1="756.8" x2="876.7" y2="756.8"/><line class="cls-4" x1="896.5" y1="756.8" x2="1460.2" y2="756.8"/><line class="cls-3" x1="858" y1="791.5" x2="858" y2="791.5"/><line class="cls-4" x1="877.8" y1="791.5" x2="1441.6" y2="791.5"/><line class="cls-3" x1="839.4" y1="826.2" x2="839.4" y2="826.2"/><line class="cls-4" x1="859.1" y1="826.2" x2="1422.9" y2="826.2"/><line class="cls-3" x1="1432.8" y1="826.2" x2="1432.8" y2="826.2"/><line class="cls-3" x1="839.4" y1="860.9" x2="839.4" y2="860.9"/><line class="cls-4" x1="859.1" y1="860.9" x2="1422.9" y2="860.9"/><line class="cls-3" x1="1432.8" y1="860.9" x2="1432.8" y2="860.9"/><line class="cls-3" x1="820.7" y1="891.9" x2="820.7" y2="891.9"/><line class="cls-4" x1="840.5" y1="891.9" x2="1404.2" y2="891.9"/><line class="cls-3" x1="1414.1" y1="891.9" x2="1414.1" y2="891.9"/><line class="cls-3" x1="839.4" y1="926.6" x2="839.4" y2="926.6"/><line class="cls-4" x1="859.1" y1="926.6" x2="1422.9" y2="926.6"/><line class="cls-3" x1="1432.8" y1="926.6" x2="1432.8" y2="926.6"/><line class="cls-3" x1="858" y1="961.3" x2="858" y2="961.3"/><line class="cls-4" x1="877.8" y1="961.3" x2="1441.6" y2="961.3"/><line class="cls-3" x1="839.4" y1="996" x2="839.4" y2="996"/><line class="cls-4" x1="859.1" y1="996" x2="1422.9" y2="996"/><line class="cls-3" x1="1432.8" y1="996" x2="1432.8" y2="996"/></g><path class="cls-5" d="M986,1026.4S929.6,932,998.4,882.9s105.9,39.9,123.2-60.4,32.4-116.7,65-88.1,65.8-102.2,117.9-88.4,77.5,39.8,47.8,73-153.5,105-131.2,127.7,22.4,90.1-21.3,114.8,20.2,47.6-35.7,75.6S1034.1,1096.1,986,1026.4Z"/><path class="cls-6" d="M971.8,1093.1S1111,896.4,1189.9,812.3s130.5-107.4,130.5-107.4"/><line class="cls-6" x1="1193.1" y1="906.2" x2="1066.1" y2="964.5"/><path class="cls-6" d="M1164.4,950.5s-23.4,1.9-41.5-12.1"/><g class="cls-7"><line class="cls-8" x1="-314.3" y1="875.8" x2="106.2" y2="648"/><line class="cls-9" x1="113.5" y1="644" x2="113.5" y2="644"/><line class="cls-8" x1="-286.4" y1="894.1" x2="134.1" y2="666.3"/><line class="cls-9" x1="141.5" y1="662.3" x2="141.5" y2="662.3"/><line class="cls-8" x1="-258.4" y1="912.4" x2="162.1" y2="684.6"/><line class="cls-9" x1="169.4" y1="680.6" x2="169.4" y2="680.6"/><line class="cls-8" x1="-258.3" y1="945.8" x2="162.1" y2="718"/><line class="cls-9" x1="169.5" y1="714.1" x2="169.5" y2="714.1"/><line class="cls-8" x1="-258.3" y1="979.2" x2="162.2" y2="751.5"/><line class="cls-9" x1="169.6" y1="747.5" x2="169.6" y2="747.5"/><line class="cls-8" x1="-244.2" y1="1005.1" x2="176.3" y2="777.3"/><line class="cls-9" x1="183.6" y1="773.3" x2="183.6" y2="773.3"/><line class="cls-8" x1="-245.6" y1="1035.8" x2="174.9" y2="808"/><line class="cls-9" x1="182.2" y1="804" x2="182.2" y2="804"/><line class="cls-8" x1="-217.7" y1="1054.1" x2="202.8" y2="826.4"/><line class="cls-9" x1="210.2" y1="822.4" x2="210.2" y2="822.4"/><line class="cls-8" x1="-189.7" y1="1072.5" x2="230.7" y2="844.7"/><line class="cls-9" x1="238.1" y1="840.7" x2="238.1" y2="840.7"/><line class="cls-8" x1="-189.7" y1="1105.9" x2="230.8" y2="878.1"/><line class="cls-9" x1="238.2" y1="874.1" x2="238.2" y2="874.1"/><line class="cls-8" x1="-189.6" y1="1139.3" x2="230.9" y2="911.5"/><line class="cls-9" x1="238.3" y1="907.5" x2="238.3" y2="907.5"/><line class="cls-8" x1="-175.5" y1="1165.2" x2="244.9" y2="937.4"/><line class="cls-9" x1="252.3" y1="933.4" x2="252.3" y2="933.4"/><line class="cls-8" x1="-176.9" y1="1195.9" x2="243.6" y2="968.1"/><line class="cls-9" x1="250.9" y1="964.1" x2="250.9" y2="964.1"/><line class="cls-8" x1="-149" y1="1214.2" x2="271.5" y2="986.4"/><line class="cls-9" x1="278.9" y1="982.4" x2="278.9" y2="982.4"/><line class="cls-8" x1="-121.1" y1="1232.5" x2="299.4" y2="1004.8"/><line class="cls-9" x1="306.8" y1="1000.8" x2="306.8" y2="1000.8"/></g><path class="cls-10" d="M329.3,1020s84.5,4.8,112.2-95.3"/><path class="cls-11" d="M367.7,997.5s-37.3-14.5-15.6-67.1C352,930.4,381.3,961.9,367.7,997.5Z"/><path class="cls-12" d="M374.9,1004.9s-37.3-14.5-15.6-67.1C359.3,937.8,388.6,969.3,374.9,1004.9Z"/><path class="cls-11" d="M404.1,1004.1s38.6-23.1,53.7-2.8C457.7,1001.3,430.5,1014.3,404.1,1004.1Z"/><path class="cls-12" d="M393.7,1009.7s38.6-23.1,53.7-2.8C447.3,1006.9,420,1019.9,393.7,1009.7Z"/><path class="cls-11" d="M469.9,869s-36,20-29.4,54.5C440.5,923.5,474.8,936.1,469.9,869Z"/><path class="cls-12" d="M481.2,880.4s-39.4,12-40.1,47.2C441.1,927.6,472,947.1,481.2,880.4Z"/><path class="cls-11" d="M412.5,965.9s-36.6-24.5-41.6-74.2C370.9,891.8,423.3,902.3,412.5,965.9Z"/><path class="cls-12" d="M411.8,976.3s-36.6-24.5-41.6-74.2C370.2,902.1,422.6,912.7,411.8,976.3Z"/><path class="cls-11" d="M431.9,968.7s32.2-37.1,56-31.2C487.9,937.5,468.4,963.2,431.9,968.7Z"/><path class="cls-12" d="M423.4,972s40.9-27.3,62.3-15.4A93,93,0,0,1,423.4,972Z"/><path class="cls-11" d="M1432.2,472.2s-6.4,28.4-43.4,40-77.2-3.5-77.2-3.5,66.1-49.9,44.9-55-69.5,47.7-69.5,47.7-48.3-6.3-70.7-20.4l76.1-41.6L1190,469.2s-37-20.2-29-41.2,48.7-52.6,73.3-57.4l29.8,17.5-15.3-22.8s57.7-8.6,104.9,10.4c0,0,18.2,60.9,35,37.5s-2.3-30.6-2.3-30.6S1483.2,399.5,1432.2,472.2Z"/><path class="cls-12" d="M1424,488.6s-6.4,28.4-43.4,40-77.2-3.5-77.2-3.5,66.1-49.9,44.9-55-69.5,47.7-69.5,47.7-48.3-6.3-70.7-20.4l76.1-41.6-102.6,29.8s-37-20.2-29-41.2,48.7-52.6,73.3-57.4l29.8,17.5-15.3-22.8s57.7-8.6,104.9,10.4c0,0,18.2,60.9,35,37.5S1378,399,1378,399,1474.9,416,1424,488.6Z"/><path class="cls-13" d="M1409.3,456.4s61.9,8.9,129.7,118.6"/><path class="cls-12" d="M-10.6,721.4s-4.6-16,10.8-32.1S40,669.7,40,669.7s-19.5,43.4-7.4,40.1,21.8-43.2,21.8-43.2,26-10.2,41.2-9.3l-26.8,42L112.2,656s24.2,0,26,12.7-10,39.9-21,49.1l-19.9-.6,14,7.3s-26.7,20.3-55.7,23.7c0,0-26-25.7-28-9.2s9.6,14.8,9.6,14.8S-16.2,772.1-10.6,721.4Z"/><path class="cls-11" d="M-13,731.2s-4.6-16,10.8-32.1,39.9-19.6,39.9-19.6-19.5,43.4-7.4,40.1S52,676.4,52,676.4s26-10.2,41.2-9.3l-26.8,42,43.4-43.3s24.2,0,26,12.7-10,39.9-21,49.1L95,727l14,7.3S82.3,754.6,53.3,758c0,0-26-25.7-28-9.2s9.6,14.8,9.6,14.8S-18.5,781.9-13,731.2Z"/><path class="cls-13" d="M-84.9,830.2S-87.2,788.3,13.5,712"/><path class="cls-11" d="M-5.3,964.6s-19.1-21.5-7.1-57.9S35,846.8,35,846.8s1.9,81.8,18.3,67.7S55,831.2,55,831.2s32.9-35.1,57.1-45l-10.5,85.1,35.2-99.5s37.5-18,49.8.5,14.1,69.4,3.8,91.9L159.2,878l27.1.9S160,930.2,117.5,957c0,0-59.4-20.6-50.3,6.5s25.9,15.8,25.9,15.8S23.6,1047.3-5.3,964.6Z"/><path class="cls-12" d="M0,979.3s-19.1-21.5-7.1-57.9,47.4-59.9,47.4-59.9,1.9,81.8,18.3,67.7,1.7-83.3,1.7-83.3,32.9-35.1,57.1-45L106.9,886l35.2-99.5s37.5-18,49.8.5,14.1,69.4,3.8,91.9l-31.2,13.8,27.1.9s-26.3,51.3-68.8,78.1c0,0-59.4-20.6-50.3,6.5S98.4,994,98.4,994,28.9,1062,0,979.3Z"/><path class="cls-13" d="M-39.9,1188.6s-34.6-63.4,65-256.6"/><path class="cls-11" d="M975.8,1063s-74.3-3.7-76.6-62,61.8-45.7,11.4-93.9-54-63.2-25.8-71-33.5-76.8-6.3-101.5,51.2-29.3,59,.4,2.6,128.3,23.6,124.2,59.3,21.5,57,56.1,34.4,6.6,29.6,49.4S1033.1,1062.1,975.8,1063Z"/><path class="cls-6" d="M1010.5,1096.4s-60.5-155-79-232.5-12.3-116-12.3-116"/><line class="cls-6" x1="986.8" y1="897.7" x2="972.2" y2="993.1"/><path class="cls-6" d="M1001.5,931.1s-7.8,14.2-22.7,19.3"/><path class="cls-14" d="M-35.7,307.3s418.1-16,466.6-350.1"/><path class="cls-15" d="M-16.4,186S397.5,247.2,506.7-72.3"/></svg>