<svg xmlns="http://www.w3.org/2000/svg" xmlns:xlink="http://www.w3.org/1999/xlink" viewBox="0 0 695.66 641.79"><defs><style>.cls-1,.cls-3,.cls-4,.cls-7,.cls-8,.cls-9{fill:none;}.cls-2{clip-path:url(#clip-path);}.cls-3,.cls-4,.cls-7,.cls-8{stroke:#2aff71;}.cls-3,.cls-4,.cls-9{stroke-linecap:round;stroke-linejoin:round;}.cls-3,.cls-4{stroke-width:5px;}.cls-4{stroke-dasharray:0 19.78;}.cls-5{fill:#5faf77;}.cls-6{fill:#2aff71;}.cls-7,.cls-8{stroke-miterlimit:10;}.cls-8{stroke-width:3px;}.cls-9{stroke:#fff;stroke-width:4px;}</style><clipPath id="clip-path" transform="translate(-68.57 -0.43)"><path class="cls-1" d="M137,735.62S478.5,695.08,497.43,517.08s-6.4-166.22,72.2-180.51,255.51-34,278.74-185.31S871.5,0,871.5,0L0,13.1Z"/></clipPath></defs><g id="Calque_2" data-name="Calque 2"><g id="Calque_1-2" data-name="Calque 1"><g class="cls-2"><line class="cls-3" x1="663.43" y1="630.77" x2="663.43" y2="630.77"/><line class="cls-4" x1="644.53" y1="631.06" x2="106.42" y2="639.14"/><line class="cls-3" x1="96.97" y1="639.29" x2="96.97" y2="639.29"/><line class="cls-3" x1="645.08" y1="597.92" x2="645.08" y2="597.92"/><line class="cls-4" x1="626.19" y1="598.21" x2="88.17" y2="606.29"/><line class="cls-3" x1="78.72" y1="606.43" x2="78.72" y2="606.43"/><line class="cls-3" x1="626.74" y1="565.07" x2="626.74" y2="565.07"/><line class="cls-4" x1="607.84" y1="565.35" x2="69.82" y2="573.44"/><line class="cls-3" x1="60.37" y1="573.58" x2="60.37" y2="573.58"/><line class="cls-3" x1="644.09" y1="531.68" x2="644.09" y2="531.68"/><line class="cls-4" x1="625.19" y1="531.97" x2="87.17" y2="540.05"/><line class="cls-3" x1="77.72" y1="540.19" x2="77.72" y2="540.19"/><line class="cls-3" x1="661.44" y1="498.3" x2="661.44" y2="498.3"/><line class="cls-4" x1="642.54" y1="498.58" x2="104.42" y2="506.67"/><line class="cls-3" x1="94.98" y1="506.81" x2="94.98" y2="506.81"/><line class="cls-3" x1="660.94" y1="465.18" x2="660.94" y2="465.18"/><line class="cls-4" x1="642.04" y1="465.46" x2="103.93" y2="473.55"/><line class="cls-3" x1="94.48" y1="473.69" x2="94.48" y2="473.69"/><line class="cls-3" x1="678.25" y1="435.32" x2="678.25" y2="435.32"/><line class="cls-4" x1="659.45" y1="435.6" x2="121.33" y2="443.69"/><line class="cls-3" x1="111.88" y1="443.83" x2="111.88" y2="443.83"/><line class="cls-3" x1="660" y1="402.47" x2="660" y2="402.47"/><line class="cls-4" x1="641.1" y1="402.75" x2="102.98" y2="410.84"/><line class="cls-3" x1="93.54" y1="410.98" x2="93.54" y2="410.98"/><line class="cls-3" x1="641.65" y1="369.62" x2="641.65" y2="369.62"/><line class="cls-4" x1="622.75" y1="369.9" x2="84.73" y2="377.99"/><line class="cls-3" x1="75.29" y1="378.13" x2="75.29" y2="378.13"/><line class="cls-3" x1="659" y1="336.23" x2="659" y2="336.23"/><line class="cls-4" x1="640.11" y1="336.51" x2="101.99" y2="344.6"/><line class="cls-3" x1="92.54" y1="344.74" x2="92.54" y2="344.74"/><line class="cls-3" x1="676.26" y1="302.84" x2="676.26" y2="302.84"/><line class="cls-4" x1="657.46" y1="303.13" x2="119.34" y2="311.21"/><line class="cls-3" x1="109.89" y1="311.36" x2="109.89" y2="311.36"/><line class="cls-3" x1="675.76" y1="269.73" x2="675.76" y2="269.73"/><line class="cls-4" x1="656.96" y1="270.01" x2="118.84" y2="278.09"/><line class="cls-3" x1="109.39" y1="278.24" x2="109.39" y2="278.24"/><line class="cls-3" x1="693.16" y1="239.87" x2="693.16" y2="239.87"/><line class="cls-4" x1="674.27" y1="240.15" x2="136.25" y2="248.24"/><line class="cls-3" x1="126.8" y1="248.38" x2="126.8" y2="248.38"/><line class="cls-3" x1="674.82" y1="207.02" x2="674.82" y2="207.02"/><line class="cls-4" x1="656.02" y1="207.3" x2="117.9" y2="215.39"/><line class="cls-3" x1="108.45" y1="215.53" x2="108.45" y2="215.53"/><line class="cls-3" x1="656.57" y1="174.17" x2="656.57" y2="174.17"/><line class="cls-4" x1="637.67" y1="174.45" x2="99.55" y2="182.54"/><line class="cls-3" x1="90.1" y1="182.68" x2="90.1" y2="182.68"/><line class="cls-3" x1="673.82" y1="140.78" x2="673.82" y2="140.78"/><line class="cls-4" x1="655.02" y1="141.06" x2="116.9" y2="149.15"/><line class="cls-3" x1="107.45" y1="149.29" x2="107.45" y2="149.29"/><line class="cls-3" x1="691.17" y1="107.39" x2="691.17" y2="107.39"/><line class="cls-4" x1="672.27" y1="107.68" x2="134.25" y2="115.76"/><line class="cls-3" x1="124.81" y1="115.9" x2="124.81" y2="115.9"/><line class="cls-3" x1="690.68" y1="74.37" x2="690.68" y2="74.37"/><line class="cls-4" x1="671.78" y1="74.65" x2="133.76" y2="82.74"/><line class="cls-3" x1="124.31" y1="82.88" x2="124.31" y2="82.88"/><line class="cls-3" x1="653.84" y1="614.5" x2="653.84" y2="614.5"/><line class="cls-4" x1="634.94" y1="614.79" x2="96.83" y2="622.87"/><line class="cls-3" x1="87.38" y1="623.02" x2="87.38" y2="623.02"/><line class="cls-3" x1="635.49" y1="581.65" x2="635.49" y2="581.65"/><line class="cls-4" x1="616.6" y1="581.94" x2="78.58" y2="590.02"/><line class="cls-3" x1="69.13" y1="590.16" x2="69.13" y2="590.16"/><line class="cls-3" x1="617.15" y1="548.8" x2="617.15" y2="548.8"/><line class="cls-4" x1="598.25" y1="549.09" x2="60.23" y2="557.17"/><line class="cls-3" x1="50.78" y1="557.31" x2="50.78" y2="557.31"/><line class="cls-3" x1="634.5" y1="515.41" x2="634.5" y2="515.41"/><line class="cls-4" x1="615.6" y1="515.7" x2="77.58" y2="523.78"/><line class="cls-3" x1="68.13" y1="523.93" x2="68.13" y2="523.93"/><line class="cls-3" x1="651.85" y1="482.03" x2="651.85" y2="482.03"/><line class="cls-4" x1="632.95" y1="482.31" x2="94.84" y2="490.4"/><line class="cls-3" x1="85.39" y1="490.54" x2="85.39" y2="490.54"/><line class="cls-3" x1="651.35" y1="448.91" x2="651.35" y2="448.91"/><line class="cls-4" x1="632.45" y1="449.19" x2="94.34" y2="457.28"/><line class="cls-3" x1="84.89" y1="457.42" x2="84.89" y2="457.42"/><line class="cls-3" x1="668.66" y1="419.05" x2="668.66" y2="419.05"/><line class="cls-4" x1="649.86" y1="419.34" x2="111.74" y2="427.42"/><line class="cls-3" x1="102.29" y1="427.56" x2="102.29" y2="427.56"/><line class="cls-3" x1="650.41" y1="386.2" x2="650.41" y2="386.2"/><line class="cls-4" x1="631.51" y1="386.48" x2="93.4" y2="394.57"/><line class="cls-3" x1="83.95" y1="394.71" x2="83.95" y2="394.71"/><line class="cls-3" x1="632.06" y1="353.35" x2="632.06" y2="353.35"/><line class="cls-4" x1="613.17" y1="353.63" x2="75.14" y2="361.72"/><line class="cls-3" x1="65.7" y1="361.86" x2="65.7" y2="361.86"/><line class="cls-3" x1="649.41" y1="319.96" x2="649.41" y2="319.96"/><line class="cls-4" x1="630.52" y1="320.25" x2="92.4" y2="328.33"/><line class="cls-3" x1="82.95" y1="328.47" x2="82.95" y2="328.47"/><line class="cls-3" x1="666.67" y1="286.58" x2="666.67" y2="286.58"/><line class="cls-4" x1="647.87" y1="286.86" x2="109.75" y2="294.95"/><line class="cls-3" x1="100.3" y1="295.09" x2="100.3" y2="295.09"/><line class="cls-3" x1="666.17" y1="253.46" x2="666.17" y2="253.46"/><line class="cls-4" x1="647.37" y1="253.74" x2="109.25" y2="261.83"/><line class="cls-3" x1="99.8" y1="261.97" x2="99.8" y2="261.97"/><line class="cls-3" x1="683.57" y1="223.6" x2="683.57" y2="223.6"/><line class="cls-4" x1="664.68" y1="223.88" x2="126.66" y2="231.97"/><line class="cls-3" x1="117.21" y1="232.11" x2="117.21" y2="232.11"/><line class="cls-3" x1="665.23" y1="190.75" x2="665.23" y2="190.75"/><line class="cls-4" x1="646.43" y1="191.03" x2="108.31" y2="199.12"/><line class="cls-3" x1="98.86" y1="199.26" x2="98.86" y2="199.26"/><line class="cls-3" x1="646.98" y1="157.9" x2="646.98" y2="157.9"/><line class="cls-4" x1="628.08" y1="158.18" x2="89.96" y2="166.27"/><line class="cls-3" x1="80.52" y1="166.41" x2="80.52" y2="166.41"/><line class="cls-3" x1="664.23" y1="124.51" x2="664.23" y2="124.51"/><line class="cls-4" x1="645.43" y1="124.79" x2="107.31" y2="132.88"/><line class="cls-3" x1="97.87" y1="133.02" x2="97.87" y2="133.02"/><line class="cls-3" x1="681.58" y1="91.12" x2="681.58" y2="91.12"/><line class="cls-4" x1="662.69" y1="91.41" x2="124.67" y2="99.49"/><line class="cls-3" x1="115.22" y1="99.64" x2="115.22" y2="99.64"/><line class="cls-3" x1="681.09" y1="58.1" x2="681.09" y2="58.1"/><line class="cls-4" x1="662.19" y1="58.38" x2="124.17" y2="66.47"/><line class="cls-3" x1="114.72" y1="66.61" x2="114.72" y2="66.61"/></g><path class="cls-5" d="M204.7,150.89s10.23-13.9,33.09-11.41,41.09,20.32,41.09,20.32S231.11,171.15,241.44,179s49.1-9.43,49.1-9.43,24.72,14.92,33.56,27.88L272.84,202l62.81,8.2s15.25,19.76,5.94,29.3-39,17-53.46,13.73l-12-16.58,2.87,16s-33.41-9-54.46-30.6c0,0,4.66-37.45-10.11-28.71s-6,17.18-6,17.18S159.78,178.21,204.7,150.89Z" transform="translate(-68.57 -0.43)"/><path class="cls-6" d="M209.63,142.33s10.23-13.9,33.09-11.42,41.09,20.32,41.09,20.32S236,162.59,246.37,170.45s49.1-9.43,49.1-9.43S320.19,175.93,329,188.9l-51.26,4.49,62.81,8.2s15.26,19.76,5.94,29.29-39,17-53.46,13.74l-12-16.59,2.87,16s-33.4-9-54.45-30.6c0,0,4.65-37.44-10.12-28.71s-6,17.18-6,17.18S164.71,169.65,209.63,142.33Z" transform="translate(-68.57 -0.43)"/><path class="cls-7" d="M68.9,158.63s32.88-28.24,158.74,6" transform="translate(-68.57 -0.43)"/><path class="cls-8" d="M79.13,223.32s52,95.54,180.1,58" transform="translate(-68.57 -0.43)"/><path class="cls-6" d="M129.72,250s-9.43-50.57,62.72-62.5C192.37,187.41,177.82,240.76,129.72,250Z" transform="translate(-68.57 -0.43)"/><path class="cls-5" d="M126.51,262.89s-9.43-50.56,62.73-62.49C189.24,200.4,174.68,253.74,126.51,262.89Z" transform="translate(-68.57 -0.43)"/><path class="cls-6" d="M147.17,294.24S198.55,320.76,186.6,351C186.53,350.89,153.91,330,147.17,294.24Z" transform="translate(-68.57 -0.43)"/><path class="cls-5" d="M134,286.68s51.37,26.51,39.43,56.75C173.37,343.33,140.68,322.31,134,286.68Z" transform="translate(-68.57 -0.43)"/><path class="cls-6" d="M339.3,274.6s-46.23-25.78-79.44,4.8C259.86,279.4,269.33,325.4,339.3,274.6Z" transform="translate(-68.57 -0.43)"/><path class="cls-5" d="M334.5,294.66s-39.79-34.9-78.71-11.82C255.79,282.84,255.42,329.8,334.5,294.66Z" transform="translate(-68.57 -0.43)"/><path class="cls-6" d="M194.58,277.54s2-56.57,52.87-95.7C247.34,181.91,271.36,246.26,194.58,277.54Z" transform="translate(-68.57 -0.43)"/><path class="cls-5" d="M182.75,283.82s2-56.57,52.86-95.7C235.61,188.12,259.53,252.54,182.75,283.82Z" transform="translate(-68.57 -0.43)"/><path class="cls-6" d="M204.66,300.63s62.34,10,72,40C276.68,340.66,235.4,336.77,204.66,300.63Z" transform="translate(-68.57 -0.43)"/><path class="cls-5" d="M195.3,293.58s57.53,26.18,59,57.61C254.26,351.09,215.51,336.4,195.3,293.58Z" transform="translate(-68.57 -0.43)"/><path class="cls-5" d="M336.92,14.63S368.3-13.22,391.6,9.08,384.16,51.62,423,51,469,54.84,460.64,69.09s43,17.41,41.51,37.92-9.41,31.89-24,23.11S427.91,80,421,90s-32.19,14.8-44.56.17-16.41,11-30.87-8S314.2,37.61,336.92,14.63Z" transform="translate(-68.57 -0.43)"/><path class="cls-9" d="M310.9,14s83.63,38.22,120.77,61.82,49.53,41.3,49.53,41.3" transform="translate(-68.57 -0.43)"/><line class="cls-9" x1="328.12" y1="83.3" x2="297.24" y2="39.83"/><path class="cls-9" d="M378,76.12s-2.37-8.64,1.59-16.42" transform="translate(-68.57 -0.43)"/><path class="cls-8" d="M350.64,228.32c-19.83-132-128.38-139-128.38-139" transform="translate(-68.57 -0.43)"/><path class="cls-6" d="M237.46,207.19C217.93,136.72,267.77,124,267.77,124,279.6,171.53,237.34,207.18,237.46,207.19Z" transform="translate(-68.57 -0.43)"/><path class="cls-5" d="M247.8,198.87c-19.54-70.48,30.3-83.2,30.3-83.2C290.06,163.22,247.8,198.87,247.8,198.87Z" transform="translate(-68.57 -0.43)"/><path class="cls-6" d="M383.31,133.11c-22.41,23.56-68.08-11.89-68.08-11.89C350.49,112.3,383.18,133.1,383.31,133.11Z" transform="translate(-68.57 -0.43)"/><path class="cls-5" d="M370.91,124.36c-22.41,23.56-68.08-11.9-68.08-11.9C338,103.52,370.78,124.34,370.91,124.36Z" transform="translate(-68.57 -0.43)"/><path class="cls-6" d="M349.18,229.69c-13.77,43,29.07,74.09,29.07,74.09C394.9,218.93,349.18,229.69,349.18,229.69Z" transform="translate(-68.57 -0.43)"/><path class="cls-5" d="M350.58,224.56C346,269.57,394.43,291,394.43,291,393,204.46,350.58,224.56,350.58,224.56Z" transform="translate(-68.57 -0.43)"/><path class="cls-6" d="M255.45,259.48C269.54,196.84,320,171.26,320,171.26,324,254.08,255.47,259.35,255.45,259.48Z" transform="translate(-68.57 -0.43)"/><path class="cls-5" d="M256.17,246.1c14.08-62.63,64.58-88.22,64.58-88.22C324.67,240.7,256.17,246.1,256.17,246.1Z" transform="translate(-68.57 -0.43)"/><path class="cls-6" d="M411.83,219.18c-31.28,3.84-66.62-48.49-66.62-48.49C390.93,183.37,411.83,219.18,411.83,219.18Z" transform="translate(-68.57 -0.43)"/><path class="cls-5" d="M412,194.47c-29.15,11.86-77.1-29.31-77.1-29.31C382.23,165.48,411.85,194.45,412,194.47Z" transform="translate(-68.57 -0.43)"/><path class="cls-6" d="M347.35,61.25s45.56-18.79,63.42,15.49-24.1,44.85,19.72,59.48,50.23,22.59,35.54,35.24,41.78,36.54,32.47,59-22.39,32-35.46,16.44-37.83-76.13-49.26-67.74-41.6,3.89-50-17.49-22.47,5.77-31.7-21.23S313.28,78,347.35,61.25Z" transform="translate(-68.57 -0.43)"/><path class="cls-9" d="M317.12,51.05s80.07,75.76,113.07,117,40.17,66,40.17,66" transform="translate(-68.57 -0.43)"/><line class="cls-9" x1="318.93" y1="162.97" x2="300.7" y2="101.68"/><path class="cls-9" d="M369.25,147.54s.66-10.71,8.14-18" transform="translate(-68.57 -0.43)"/></g></g></svg>