<svg xmlns="http://www.w3.org/2000/svg" viewBox="0 0 584.04 554.99"><defs><style>.cls-1{fill:#5faf77;}.cls-2{fill:#cfffde;}.cls-3{fill:#2aff71;}</style></defs><g id="Calque_2" data-name="Calque 2"><g id="Calque_1-2" data-name="Calque 1"><path class="cls-1" d="M302,0a352.6,352.6,0,0,1-60.83,87c-31.52,33.21-70.36,61.88-115.85,85.55Q106.89,182.13,87,190.6c-2.11.91-4.24,1.8-6.38,2.69-14.12,5.84-28.16,11-41.92,15.59-13.23,4.4-26.2,8.24-38.72,11.6V206c10.72-2.94,21.77-6.25,33-10,14-4.6,28.27-9.85,42.64-15.8q4.36-1.8,8.65-3.68T93,172.71q14.89-6.78,28.93-14.19c42.87-22.7,79.5-50,109.28-81.36A339,339,0,0,0,286.28,0Z"/><path class="cls-2" d="M584,0c-1.83,3.46-4,7.07-6.35,10.81q-1.43,2.24-3,4.53a347.44,347.44,0,0,1-25.54,32.78h0l-1.5,1.7C480.54,126.33,354.47,222.6,288.28,226c-91.91,4.71-63.63,82.48-90.71,153.76S.5,555,.5,555V394.83c97.76-14.77,95.65-157,95.65-157L87,190.6l-2.25-11.67-.47-2.4-2.49-12.9-4.75-24.54-.57-3L61.13,56.74l-.21-1.07L50.16,0h54.53c-.7,12.76-.71,25.65-.21,38.45,0,.34,0,.67,0,1,1.37,33.39,6.26,66.13,11.94,94.32,1.11,5.54,2.26,10.91,3.42,16.07.66,3,1.32,5.86,2,8.68q1.73,7.35,3.43,14c6,23.41,11.33,39.8,13,44.81-.41-5.48,9.62-24.54,149.88-50.24a323.5,323.5,0,0,0,99-36c1-.54,1.94-1.08,2.9-1.63,39.46-22.4,71.67-50.56,96.3-76.6.31-.33.62-.65.92-1A477.42,477.42,0,0,0,529.73,0Z"/><path class="cls-3" d="M.5,503.35a.5.5,0,0,1-.5-.5.5.5,0,0,1,.5-.5c.46,0,47.29-.63,135.74-48.77a.5.5,0,0,1,.68.2.5.5,0,0,1-.2.68C90.38,479.68,55.83,491.63,35,497.21,12.23,503.32.44,503.31.5,503.35Z"/><path class="cls-3" d="M71.77,465C45,465,19.89,458.1.32,450.44a.5.5,0,0,1-.29-.65.51.51,0,0,1,.65-.28c33.29,13,82.7,23.95,129,1.88,27.68-13.2,41.29-32.23,41.42-32.42a.5.5,0,0,1,.82.57c-.14.2-13.86,19.41-41.76,32.73A134.26,134.26,0,0,1,71.77,465Z"/><path class="cls-3" d="M486.75,53a.5.5,0,0,1-.09-1C559.77,38.45,576.83,11.25,577,11a.5.5,0,1,1,.85.52c-.16.27-17.37,27.85-91,41.54Z"/><path class="cls-3" d="M387.64,131.39a.51.51,0,0,1-.48-.34.5.5,0,0,1,.31-.63c69.64-24,160.2-81.78,161.11-82.36a.5.5,0,0,1,.54.85c-.91.58-91.57,58.36-161.32,82.45A.45.45,0,0,1,387.64,131.39Z"/><path class="cls-3" d="M318.45,203.6c-25.51,0-61.87-4.14-111.06-18.64a.5.5,0,0,1,.28-1c36.7,10.82,89.7,22.6,133.77,17.32,26.34-3.15,37.11-11,37.21-11.11a.5.5,0,1,1,.6.8c-.43.33-11,8.09-37.56,11.29A193.29,193.29,0,0,1,318.45,203.6Z"/><path class="cls-3" d="M61,56.76a.49.49,0,0,1-.35-.15.49.49,0,0,1,0-.7,50.89,50.89,0,0,1,10.94-7.75,83.83,83.83,0,0,1,32.84-9.71.5.5,0,0,1,.09,1A82.53,82.53,0,0,0,72.15,49,50.13,50.13,0,0,0,61.4,56.61.51.51,0,0,1,61,56.76Z"/><path class="cls-3" d="M77,139.1a.5.5,0,0,1-.5-.48c0-.35-1.22-35.53,27.69-62.67a.5.5,0,0,1,.71,0,.48.48,0,0,1,0,.7c-28.56,26.81-27.39,61.55-27.37,61.9a.5.5,0,0,1-.48.52Z"/><path class="cls-3" d="M96.16,238.28a.46.46,0,0,1-.33-.13.49.49,0,0,1,0-.7c.21-.23,20.67-24.1,23.51-88a.46.46,0,0,1,.52-.47.5.5,0,0,1,.48.52c-2.86,64.35-23.55,88.43-23.76,88.66A.51.51,0,0,1,96.16,238.28Z"/><path class="cls-1" d="M216.66,0A351.81,351.81,0,0,1,137,132.88q-8.25,8.69-17.16,17Q107.09,161.72,93,172.71q-4,3.15-8.18,6.22a465,465,0,0,1-46,29.95Q20.17,219.47,0,228.89V213.4Q17.12,205.15,33,196a444.52,444.52,0,0,0,48.8-32.38,387.1,387.1,0,0,0,34.65-29.86q5.43-5.25,10.57-10.69A337.85,337.85,0,0,0,201.87,0Z"/></g></g></svg>