<?xml version="1.0" encoding="utf-8"?>
<!-- Generator: Adobe Illustrator 25.1.0, SVG Export Plug-In . SVG Version: 6.00 Build 0)  -->
<svg version="1.1" id="Calque_1" xmlns="http://www.w3.org/2000/svg" xmlns:xlink="http://www.w3.org/1999/xlink" x="0px" y="0px"
	 viewBox="0 0 500 625" style="enable-background:new 0 0 500 625;" xml:space="preserve">
<style type="text/css">
	.st0{fill:#966324;}
	.st1{fill:#F4F4F4;}
	.st2{fill:#FFFFFF;}
	.st3{fill:#F998BD;}
</style>
<path class="st0" d="M485.1,195.6C473.9,179.1,457.6,170,439,170c-5,0-9.9,0.7-14.6,1.9C396,96.6,328.6,62.5,250,62.5
	S104,96.6,75.6,172c-4.7-1.3-9.6-2-14.6-2c-18.6,0-34.9,9.1-46.1,25.6C5.3,209.8,0,229.1,0,250s5.3,40.2,14.9,54.4
	C26.1,320.9,42.4,330,61,330c3.3,0,6.5-0.3,9.7-0.8c24.7,81.3,95.7,108.4,179.3,108.4s154.6-27.1,179.3-108.4
	c3.2,0.6,6.4,0.8,9.7,0.8c18.6,0,34.9-9.1,46.1-25.6c9.6-14.2,14.9-33.5,14.9-54.4S494.7,209.8,485.1,195.6z M64.3,300.9
	c-1.1,0.1-2.2,0.2-3.3,0.2c-22.1,0-32.1-26.5-32.1-51.1s10-51.1,32.1-51.1c2.2,0,4.3,0.3,6.4,0.8c-4,17.9-6.1,37.6-6.1,59.3
	C61.3,274.1,62.3,288,64.3,300.9z M250,398.3c-74.4,0-134.7-33.2-134.7-74.2c0-6.8,1.7-13.4,4.8-19.7c10.1-20.3,9.8-44,1-64.9
	c-4.4-10.4-6.4-21.9-5.6-34c2.6-36.8,32.6-66.4,69.5-68.7c16.9-1,32.7,3.5,45.6,12.1c11.8,7.7,27.1,7.7,38.9,0
	c13-8.5,28.7-13.1,45.6-12.1c36.9,2.3,66.9,31.9,69.5,68.7c0.9,12.1-1.2,23.7-5.6,34c-8.8,20.9-9.1,44.6,1,64.9
	c3.1,6.3,4.8,12.9,4.8,19.7C384.7,365.1,324.4,398.3,250,398.3z M439,301.1c-1.1,0-2.2-0.1-3.3-0.2c2-12.9,3-26.9,3-42
	c0-21.7-2.1-41.4-6.1-59.3c2.1-0.5,4.2-0.8,6.4-0.8c22,0,32.1,26.5,32.1,51.1C471.1,274.5,461,301.1,439,301.1z"/>
<path class="st1" d="M471.1,249.9c0,24.6-10.1,51.2-32.1,51.2c-1.1,0-2.2-0.1-3.3-0.2c2-12.9,3-26.9,3-42c0-21.7-2.1-41.4-6.1-59.3
	c2.1-0.5,4.2-0.8,6.4-0.8C461,198.8,471.1,225.3,471.1,249.9z"/>
<path class="st1" d="M380,304.4c-10.1-20.3-9.8-44-1-64.9c4.4-10.3,6.5-21.9,5.6-34c-2.6-36.8-32.6-66.4-69.5-68.7
	c-16.9-1-32.6,3.6-45.6,12.1c-11.8,7.7-27.1,7.7-38.9,0c-12.9-8.6-28.7-13.1-45.6-12.1c-36.9,2.3-66.9,31.9-69.5,68.7
	c-0.8,12.1,1.2,23.6,5.6,34c8.8,20.9,9.1,44.6-1,64.9c-3.1,6.3-4.8,12.9-4.8,19.7c0,41,60.3,74.2,134.7,74.2s134.7-33.2,134.8-74.2
	C384.8,317.3,383.1,310.7,380,304.4z M188.9,261.7c-14.3,0-25.9-14.7-25.9-32.8c0-18.1,11.6-32.8,25.9-32.8
	c14.3,0,25.9,14.7,25.9,32.8C214.8,247,203.2,261.7,188.9,261.7z M311.1,261.7c-14.3,0-25.9-14.7-25.9-32.8
	c0-18.1,11.6-32.8,25.9-32.8c14.3,0,25.9,14.7,25.9,32.8C337,247,325.4,261.7,311.1,261.7z"/>
<path class="st1" d="M61.3,259c0,15.1,1,29,3,41.9c-1.1,0.1-2.2,0.2-3.3,0.2c-22.1,0-32.1-26.5-32.1-51.1s10-51.1,32.1-51.1
	c2.2,0,4.3,0.3,6.4,0.8C63.4,217.6,61.3,237.3,61.3,259z"/>
<ellipse cx="188.9" cy="228.9" rx="25.9" ry="32.8"/>
<ellipse cx="311.1" cy="228.9" rx="25.9" ry="32.8"/>
<ellipse class="st2" cx="315.8" cy="218.1" rx="5.5" ry="7"/>
<ellipse class="st2" cx="194.4" cy="218.1" rx="5.5" ry="7"/>
<ellipse class="st3" cx="250" cy="276.2" rx="21" ry="8.7"/>
</svg>
