<svg width="1117" height="3055" viewBox="0 0 1117 3055" fill="none" xmlns="http://www.w3.org/2000/svg">
<path d="M406.597 0C432.264 80 441.797 274.1 274.597 410.5C65.5973 581 329.097 558 329.097 689.5C329.097 821 139.597 879 251.597 925.5C363.597 972 778.097 801.5 898.097 952.5C994.097 1073.3 1002.86 1160 1007.5 1181C1035.33 1306.83 1006.5 1568.1 668.5 1606.5C246 1654.5 -80.9999 1602 19.5001 1876.5C120 2151 1007.5 2011.5 1007.5 2238C1039.83 2391.5 1021.7 2732.5 690.5 2868.5C276.5 3038.5 85.0001 3156 120 3469.5C155 3783 603 3168.5 755.5 3225.5C908 3282.5 834 3469.5 716.5 3469.5C599 3469.5 625.5 3718 816.5 3626.5C1007.5 3535 1152 3752.5 1108.5 4009.5" stroke="black"/>
</svg>
